{"glyphs":{"0":{"ha":1279,"x_min":0,"x_max":0,"o":"m 401 -297 l 401 -85 l 535 -85 l 535 -117 l 436 -117 l 436 -172 l 500 -172 l 500 -204 l 436 -204 l 436 -297 z m 564 -297 l 564 -85 l 697 -85 l 697 -117 l 599 -117 l 599 -172 l 663 -172 l 663 -204 l 599 -204 l 599 -297 z m 761 -117 l 761 -192 l 781 -192 b 828 -153 804 -192 828 -182 b 785 -117 828 -126 807 -117 z m 726 -85 l 779 -85 b 864 -153 824 -85 864 -101 b 786 -224 864 -199 828 -224 l 761 -224 l 761 -297 l 726 -297 z m 622 1106 b 354 849 454 1106 354 988 b 368 764 354 819 360 792 l 378 764 b 622 593 413 658 504 593 b 867 764 743 593 833 661 l 876 764 b 890 849 885 792 890 819 b 622 1106 890 992 785 1106 z m 589 764 b 532 849 554 778 533 813 b 622 939 535 899 572 939 b 713 849 672 939 710 897 b 656 764 710 813 692 779 l 811 764 b 622 644 781 686 713 644 b 433 764 532 644 461 688 z m 646 713 b 622 735 646 724 635 735 b 599 713 610 735 599 724 b 622 689 599 699 610 689 b 646 713 635 689 646 700 z m 483 -7 l 578 144 l 619 224 l 663 144 l 756 -7 l 811 -7 b 868 -53 815 -35 839 -53 b 925 -7 899 -53 922 -32 l 993 -7 l 772 322 l 690 322 l 661 360 l 904 672 l 988 585 l 1039 585 l 936 711 l 867 711 l 622 397 l 378 711 l 310 711 l 207 585 l 258 585 l 340 672 l 582 360 l 554 322 l 474 322 l 253 -7 l 319 -7 b 378 -53 324 -32 349 -53 b 435 -7 406 -53 428 -33 z "},"1":{"ha":1279,"x_min":0,"x_max":0,"o":"m 401 -297 l 401 -85 l 535 -85 l 535 -117 l 436 -117 l 436 -172 l 500 -172 l 500 -204 l 436 -204 l 436 -297 z m 564 -297 l 564 -85 l 697 -85 l 697 -117 l 599 -117 l 599 -172 l 663 -172 l 663 -204 l 599 -204 l 599 -297 z m 761 -117 l 761 -192 l 781 -192 b 828 -153 804 -192 828 -182 b 785 -117 828 -126 807 -117 z m 726 -85 l 779 -85 b 864 -153 824 -85 864 -101 b 786 -224 864 -199 828 -224 l 761 -224 l 761 -297 l 726 -297 z m 622 1106 b 354 849 454 1106 354 988 b 368 764 354 819 360 792 l 378 764 b 622 593 413 658 504 593 b 867 764 743 593 833 661 l 876 764 b 890 849 885 792 890 819 b 622 1106 890 992 785 1106 z m 589 764 b 532 849 554 778 533 813 b 622 939 535 899 572 939 b 713 849 672 939 710 897 b 656 764 710 813 692 779 l 811 764 b 622 644 781 686 713 644 b 433 764 532 644 461 688 z m 646 713 b 622 735 646 724 635 735 b 599 713 610 735 599 724 b 622 689 599 699 610 689 b 646 713 635 689 646 700 z m 483 -7 l 578 144 l 619 224 l 663 144 l 756 -7 l 811 -7 b 868 -53 815 -35 839 -53 b 925 -7 899 -53 922 -32 l 993 -7 l 772 322 l 690 322 l 661 360 l 904 672 l 988 585 l 1039 585 l 936 711 l 867 711 l 622 397 l 378 711 l 310 711 l 207 585 l 258 585 l 340 672 l 582 360 l 554 322 l 474 322 l 253 -7 l 319 -7 b 378 -53 324 -32 349 -53 b 435 -7 406 -53 428 -33 z "},"2":{"ha":1279,"x_min":0,"x_max":0,"o":"m 401 -297 l 401 -85 l 535 -85 l 535 -117 l 436 -117 l 436 -172 l 500 -172 l 500 -204 l 436 -204 l 436 -297 z m 564 -297 l 564 -85 l 697 -85 l 697 -117 l 599 -117 l 599 -172 l 663 -172 l 663 -204 l 599 -204 l 599 -297 z m 761 -117 l 761 -192 l 781 -192 b 828 -153 804 -192 828 -182 b 785 -117 828 -126 807 -117 z m 726 -85 l 779 -85 b 864 -153 824 -85 864 -101 b 786 -224 864 -199 828 -224 l 761 -224 l 761 -297 l 726 -297 z m 622 1106 b 354 849 454 1106 354 988 b 368 764 354 819 360 792 l 378 764 b 622 593 413 658 504 593 b 867 764 743 593 833 661 l 876 764 b 890 849 885 792 890 819 b 622 1106 890 992 785 1106 z m 589 764 b 532 849 554 778 533 813 b 622 939 535 899 572 939 b 713 849 672 939 710 897 b 656 764 710 813 692 779 l 811 764 b 622 644 781 686 713 644 b 433 764 532 644 461 688 z m 646 713 b 622 735 646 724 635 735 b 599 713 610 735 599 724 b 622 689 599 699 610 689 b 646 713 635 689 646 700 z m 483 -7 l 578 144 l 619 224 l 663 144 l 756 -7 l 811 -7 b 868 -53 815 -35 839 -53 b 925 -7 899 -53 922 -32 l 993 -7 l 772 322 l 690 322 l 661 360 l 904 672 l 988 585 l 1039 585 l 936 711 l 867 711 l 622 397 l 378 711 l 310 711 l 207 585 l 258 585 l 340 672 l 582 360 l 554 322 l 474 322 l 253 -7 l 319 -7 b 378 -53 324 -32 349 -53 b 435 -7 406 -53 428 -33 z "},"3":{"ha":1279,"x_min":0,"x_max":0,"o":"m 401 -297 l 401 -85 l 535 -85 l 535 -117 l 436 -117 l 436 -172 l 500 -172 l 500 -204 l 436 -204 l 436 -297 z m 564 -297 l 564 -85 l 697 -85 l 697 -117 l 599 -117 l 599 -172 l 663 -172 l 663 -204 l 599 -204 l 599 -297 z m 761 -117 l 761 -192 l 781 -192 b 828 -153 804 -192 828 -182 b 785 -117 828 -126 807 -117 z m 726 -85 l 779 -85 b 864 -153 824 -85 864 -101 b 786 -224 864 -199 828 -224 l 761 -224 l 761 -297 l 726 -297 z m 622 1106 b 354 849 454 1106 354 988 b 368 764 354 819 360 792 l 378 764 b 622 593 413 658 504 593 b 867 764 743 593 833 661 l 876 764 b 890 849 885 792 890 819 b 622 1106 890 992 785 1106 z m 589 764 b 532 849 554 778 533 813 b 622 939 535 899 572 939 b 713 849 672 939 710 897 b 656 764 710 813 692 779 l 811 764 b 622 644 781 686 713 644 b 433 764 532 644 461 688 z m 646 713 b 622 735 646 724 635 735 b 599 713 610 735 599 724 b 622 689 599 699 610 689 b 646 713 635 689 646 700 z m 483 -7 l 578 144 l 619 224 l 663 144 l 756 -7 l 811 -7 b 868 -53 815 -35 839 -53 b 925 -7 899 -53 922 -32 l 993 -7 l 772 322 l 690 322 l 661 360 l 904 672 l 988 585 l 1039 585 l 936 711 l 867 711 l 622 397 l 378 711 l 310 711 l 207 585 l 258 585 l 340 672 l 582 360 l 554 322 l 474 322 l 253 -7 l 319 -7 b 378 -53 324 -32 349 -53 b 435 -7 406 -53 428 -33 z "},"4":{"ha":1279,"x_min":0,"x_max":0,"o":"m 401 -297 l 401 -85 l 535 -85 l 535 -117 l 436 -117 l 436 -172 l 500 -172 l 500 -204 l 436 -204 l 436 -297 z m 564 -297 l 564 -85 l 697 -85 l 697 -117 l 599 -117 l 599 -172 l 663 -172 l 663 -204 l 599 -204 l 599 -297 z m 761 -117 l 761 -192 l 781 -192 b 828 -153 804 -192 828 -182 b 785 -117 828 -126 807 -117 z m 726 -85 l 779 -85 b 864 -153 824 -85 864 -101 b 786 -224 864 -199 828 -224 l 761 -224 l 761 -297 l 726 -297 z m 622 1106 b 354 849 454 1106 354 988 b 368 764 354 819 360 792 l 378 764 b 622 593 413 658 504 593 b 867 764 743 593 833 661 l 876 764 b 890 849 885 792 890 819 b 622 1106 890 992 785 1106 z m 589 764 b 532 849 554 778 533 813 b 622 939 535 899 572 939 b 713 849 672 939 710 897 b 656 764 710 813 692 779 l 811 764 b 622 644 781 686 713 644 b 433 764 532 644 461 688 z m 646 713 b 622 735 646 724 635 735 b 599 713 610 735 599 724 b 622 689 599 699 610 689 b 646 713 635 689 646 700 z m 483 -7 l 578 144 l 619 224 l 663 144 l 756 -7 l 811 -7 b 868 -53 815 -35 839 -53 b 925 -7 899 -53 922 -32 l 993 -7 l 772 322 l 690 322 l 661 360 l 904 672 l 988 585 l 1039 585 l 936 711 l 867 711 l 622 397 l 378 711 l 310 711 l 207 585 l 258 585 l 340 672 l 582 360 l 554 322 l 474 322 l 253 -7 l 319 -7 b 378 -53 324 -32 349 -53 b 435 -7 406 -53 428 -33 z "},"5":{"ha":1279,"x_min":0,"x_max":0,"o":"m 401 -297 l 401 -85 l 535 -85 l 535 -117 l 436 -117 l 436 -172 l 500 -172 l 500 -204 l 436 -204 l 436 -297 z m 564 -297 l 564 -85 l 697 -85 l 697 -117 l 599 -117 l 599 -172 l 663 -172 l 663 -204 l 599 -204 l 599 -297 z m 761 -117 l 761 -192 l 781 -192 b 828 -153 804 -192 828 -182 b 785 -117 828 -126 807 -117 z m 726 -85 l 779 -85 b 864 -153 824 -85 864 -101 b 786 -224 864 -199 828 -224 l 761 -224 l 761 -297 l 726 -297 z m 622 1106 b 354 849 454 1106 354 988 b 368 764 354 819 360 792 l 378 764 b 622 593 413 658 504 593 b 867 764 743 593 833 661 l 876 764 b 890 849 885 792 890 819 b 622 1106 890 992 785 1106 z m 589 764 b 532 849 554 778 533 813 b 622 939 535 899 572 939 b 713 849 672 939 710 897 b 656 764 710 813 692 779 l 811 764 b 622 644 781 686 713 644 b 433 764 532 644 461 688 z m 646 713 b 622 735 646 724 635 735 b 599 713 610 735 599 724 b 622 689 599 699 610 689 b 646 713 635 689 646 700 z m 483 -7 l 578 144 l 619 224 l 663 144 l 756 -7 l 811 -7 b 868 -53 815 -35 839 -53 b 925 -7 899 -53 922 -32 l 993 -7 l 772 322 l 690 322 l 661 360 l 904 672 l 988 585 l 1039 585 l 936 711 l 867 711 l 622 397 l 378 711 l 310 711 l 207 585 l 258 585 l 340 672 l 582 360 l 554 322 l 474 322 l 253 -7 l 319 -7 b 378 -53 324 -32 349 -53 b 435 -7 406 -53 428 -33 z "},"6":{"ha":1279,"x_min":0,"x_max":0,"o":"m 401 -297 l 401 -85 l 535 -85 l 535 -117 l 436 -117 l 436 -172 l 500 -172 l 500 -204 l 436 -204 l 436 -297 z m 564 -297 l 564 -85 l 697 -85 l 697 -117 l 599 -117 l 599 -172 l 663 -172 l 663 -204 l 599 -204 l 599 -297 z m 761 -117 l 761 -192 l 781 -192 b 828 -153 804 -192 828 -182 b 785 -117 828 -126 807 -117 z m 726 -85 l 779 -85 b 864 -153 824 -85 864 -101 b 786 -224 864 -199 828 -224 l 761 -224 l 761 -297 l 726 -297 z m 622 1106 b 354 849 454 1106 354 988 b 368 764 354 819 360 792 l 378 764 b 622 593 413 658 504 593 b 867 764 743 593 833 661 l 876 764 b 890 849 885 792 890 819 b 622 1106 890 992 785 1106 z m 589 764 b 532 849 554 778 533 813 b 622 939 535 899 572 939 b 713 849 672 939 710 897 b 656 764 710 813 692 779 l 811 764 b 622 644 781 686 713 644 b 433 764 532 644 461 688 z m 646 713 b 622 735 646 724 635 735 b 599 713 610 735 599 724 b 622 689 599 699 610 689 b 646 713 635 689 646 700 z m 483 -7 l 578 144 l 619 224 l 663 144 l 756 -7 l 811 -7 b 868 -53 815 -35 839 -53 b 925 -7 899 -53 922 -32 l 993 -7 l 772 322 l 690 322 l 661 360 l 904 672 l 988 585 l 1039 585 l 936 711 l 867 711 l 622 397 l 378 711 l 310 711 l 207 585 l 258 585 l 340 672 l 582 360 l 554 322 l 474 322 l 253 -7 l 319 -7 b 378 -53 324 -32 349 -53 b 435 -7 406 -53 428 -33 z "},"7":{"ha":1279,"x_min":0,"x_max":0,"o":"m 401 -297 l 401 -85 l 535 -85 l 535 -117 l 436 -117 l 436 -172 l 500 -172 l 500 -204 l 436 -204 l 436 -297 z m 564 -297 l 564 -85 l 697 -85 l 697 -117 l 599 -117 l 599 -172 l 663 -172 l 663 -204 l 599 -204 l 599 -297 z m 761 -117 l 761 -192 l 781 -192 b 828 -153 804 -192 828 -182 b 785 -117 828 -126 807 -117 z m 726 -85 l 779 -85 b 864 -153 824 -85 864 -101 b 786 -224 864 -199 828 -224 l 761 -224 l 761 -297 l 726 -297 z m 622 1106 b 354 849 454 1106 354 988 b 368 764 354 819 360 792 l 378 764 b 622 593 413 658 504 593 b 867 764 743 593 833 661 l 876 764 b 890 849 885 792 890 819 b 622 1106 890 992 785 1106 z m 589 764 b 532 849 554 778 533 813 b 622 939 535 899 572 939 b 713 849 672 939 710 897 b 656 764 710 813 692 779 l 811 764 b 622 644 781 686 713 644 b 433 764 532 644 461 688 z m 646 713 b 622 735 646 724 635 735 b 599 713 610 735 599 724 b 622 689 599 699 610 689 b 646 713 635 689 646 700 z m 483 -7 l 578 144 l 619 224 l 663 144 l 756 -7 l 811 -7 b 868 -53 815 -35 839 -53 b 925 -7 899 -53 922 -32 l 993 -7 l 772 322 l 690 322 l 661 360 l 904 672 l 988 585 l 1039 585 l 936 711 l 867 711 l 622 397 l 378 711 l 310 711 l 207 585 l 258 585 l 340 672 l 582 360 l 554 322 l 474 322 l 253 -7 l 319 -7 b 378 -53 324 -32 349 -53 b 435 -7 406 -53 428 -33 z "},"8":{"ha":1279,"x_min":0,"x_max":0,"o":"m 401 -297 l 401 -85 l 535 -85 l 535 -117 l 436 -117 l 436 -172 l 500 -172 l 500 -204 l 436 -204 l 436 -297 z m 564 -297 l 564 -85 l 697 -85 l 697 -117 l 599 -117 l 599 -172 l 663 -172 l 663 -204 l 599 -204 l 599 -297 z m 761 -117 l 761 -192 l 781 -192 b 828 -153 804 -192 828 -182 b 785 -117 828 -126 807 -117 z m 726 -85 l 779 -85 b 864 -153 824 -85 864 -101 b 786 -224 864 -199 828 -224 l 761 -224 l 761 -297 l 726 -297 z m 622 1106 b 354 849 454 1106 354 988 b 368 764 354 819 360 792 l 378 764 b 622 593 413 658 504 593 b 867 764 743 593 833 661 l 876 764 b 890 849 885 792 890 819 b 622 1106 890 992 785 1106 z m 589 764 b 532 849 554 778 533 813 b 622 939 535 899 572 939 b 713 849 672 939 710 897 b 656 764 710 813 692 779 l 811 764 b 622 644 781 686 713 644 b 433 764 532 644 461 688 z m 646 713 b 622 735 646 724 635 735 b 599 713 610 735 599 724 b 622 689 599 699 610 689 b 646 713 635 689 646 700 z m 483 -7 l 578 144 l 619 224 l 663 144 l 756 -7 l 811 -7 b 868 -53 815 -35 839 -53 b 925 -7 899 -53 922 -32 l 993 -7 l 772 322 l 690 322 l 661 360 l 904 672 l 988 585 l 1039 585 l 936 711 l 867 711 l 622 397 l 378 711 l 310 711 l 207 585 l 258 585 l 340 672 l 582 360 l 554 322 l 474 322 l 253 -7 l 319 -7 b 378 -53 324 -32 349 -53 b 435 -7 406 -53 428 -33 z "},"9":{"ha":1279,"x_min":0,"x_max":0,"o":"m 401 -297 l 401 -85 l 535 -85 l 535 -117 l 436 -117 l 436 -172 l 500 -172 l 500 -204 l 436 -204 l 436 -297 z m 564 -297 l 564 -85 l 697 -85 l 697 -117 l 599 -117 l 599 -172 l 663 -172 l 663 -204 l 599 -204 l 599 -297 z m 761 -117 l 761 -192 l 781 -192 b 828 -153 804 -192 828 -182 b 785 -117 828 -126 807 -117 z m 726 -85 l 779 -85 b 864 -153 824 -85 864 -101 b 786 -224 864 -199 828 -224 l 761 -224 l 761 -297 l 726 -297 z m 622 1106 b 354 849 454 1106 354 988 b 368 764 354 819 360 792 l 378 764 b 622 593 413 658 504 593 b 867 764 743 593 833 661 l 876 764 b 890 849 885 792 890 819 b 622 1106 890 992 785 1106 z m 589 764 b 532 849 554 778 533 813 b 622 939 535 899 572 939 b 713 849 672 939 710 897 b 656 764 710 813 692 779 l 811 764 b 622 644 781 686 713 644 b 433 764 532 644 461 688 z m 646 713 b 622 735 646 724 635 735 b 599 713 610 735 599 724 b 622 689 599 699 610 689 b 646 713 635 689 646 700 z m 483 -7 l 578 144 l 619 224 l 663 144 l 756 -7 l 811 -7 b 868 -53 815 -35 839 -53 b 925 -7 899 -53 922 -32 l 993 -7 l 772 322 l 690 322 l 661 360 l 904 672 l 988 585 l 1039 585 l 936 711 l 867 711 l 622 397 l 378 711 l 310 711 l 207 585 l 258 585 l 340 672 l 582 360 l 554 322 l 474 322 l 253 -7 l 319 -7 b 378 -53 324 -32 349 -53 b 435 -7 406 -53 428 -33 z "},"\u0000":{"ha":0,"x_min":0,"x_max":0,"o":""},"\r":{"ha":403,"x_min":0,"x_max":0,"o":""}," ":{"ha":403,"x_min":0,"x_max":0,"o":""},"#":{"ha":1033,"x_min":0,"x_max":0,"o":"m 765 739 l 831 1074 l 750 1074 l 685 739 l 454 739 l 522 1074 l 440 1074 l 374 739 l 181 739 l 181 654 l 361 654 l 332 492 l 231 492 l 218 428 l 56 428 l 56 240 l 185 240 l 135 -24 l 356 -24 l 404 240 l 544 240 l 497 -24 l 717 -24 l 767 240 l 928 240 l 928 428 l 800 428 l 813 492 l 724 492 l 753 654 l 925 654 l 925 739 z m 644 492 l 592 492 l 579 428 l 439 428 l 451 492 l 411 492 l 442 654 l 672 654 z "},"$":{"ha":913,"x_min":0,"x_max":0,"o":"m 411 489 b 594 303 411 489 594 431 b 468 217 594 251 551 217 b 181 350 331 217 182 347 l 19 160 b 401 -10 129 57 250 1 l 401 -135 l 549 -135 l 549 -8 b 871 324 751 17 871 133 b 831 489 871 389 858 444 l 664 489 l 489 571 l 489 997 b 708 899 567 983 636 951 l 768 967 b 489 1074 690 1019 603 1063 l 489 1185 l 411 1185 l 411 1075 b 118 801 239 1064 118 969 b 411 489 118 618 257 558 z m 204 811 b 411 1001 204 914 271 993 l 411 603 b 204 811 276 653 207 704 z "},"%":{"ha":1274,"x_min":0,"x_max":0,"o":"m 897 -10 b 1165 264 1046 -10 1165 113 b 897 533 1165 410 1044 533 b 628 264 749 533 628 410 b 897 -10 628 113 749 -10 z m 981 260 b 899 178 981 214 942 178 b 815 261 851 178 815 215 b 897 346 815 307 851 346 b 981 260 943 346 981 307 z m 174 0 l 303 0 l 1032 1075 l 903 1075 z m 99 833 b 338 590 99 700 203 590 b 574 833 469 590 574 701 b 338 1063 574 965 464 1063 b 99 833 208 1063 99 961 z m 338 656 b 167 833 240 656 167 738 b 338 997 167 926 244 997 b 510 833 431 997 510 931 b 338 656 510 738 436 656 z "},"&":{"ha":1096,"x_min":0,"x_max":0,"o":"m 461 197 b 338 300 389 197 338 235 b 417 417 338 340 361 386 l 592 239 b 461 197 553 213 508 197 z m 132 494 b 50 290 78 439 50 371 b 422 -17 50 90 215 -17 b 739 85 549 -17 646 18 l 847 -25 l 1063 131 l 919 269 b 1058 494 971 338 1008 392 l 810 494 l 767 421 l 692 494 l 540 494 l 485 557 b 671 875 485 557 671 678 b 461 1083 671 993 581 1083 b 256 858 336 1082 256 982 b 388 557 256 724 346 607 l 310 494 z m 464 1010 b 594 867 542 1007 592 950 b 447 614 592 764 514 667 b 326 853 396 665 326 760 b 464 1010 326 933 381 1007 z "},"'":{"ha":401,"x_min":0,"x_max":0,"o":"m 247 688 l 247 1075 l 157 1075 l 157 688 z "},"(":{"ha":550,"x_min":0,"x_max":0,"o":"m 38 492 b 35 432 36 472 35 453 b 336 -235 35 175 169 -56 l 543 -111 b 311 439 411 69 311 222 b 314 492 311 457 313 475 l 199 492 b 465 1040 213 711 342 904 l 415 1065 b 114 492 272 940 133 754 z "},")":{"ha":550,"x_min":0,"x_max":0,"o":"m 429 492 b 128 1065 410 754 271 940 l 78 1040 b 344 492 201 904 331 711 l 229 492 b 232 439 231 475 232 457 b 0 -111 232 222 132 69 l 207 -235 b 508 432 374 -56 508 175 b 506 492 508 453 507 472 z "},"*":{"ha":735,"x_min":0,"x_max":0,"o":"m 304 758 l 139 551 l 197 513 l 357 715 l 510 513 l 572 560 l 415 760 l 656 828 l 631 901 l 399 831 l 407 1075 l 325 1075 l 333 829 l 96 904 l 65 831 z "},"+":{"ha":1025,"x_min":0,"x_max":0,"o":"m 546 574 l 546 907 l 478 907 l 478 574 l 106 574 l 106 421 l 378 421 l 378 169 l 647 169 l 647 421 l 919 421 l 919 574 z "},",":{"ha":400,"x_min":0,"x_max":0,"o":"m 0 -118 l 228 -118 l 379 269 l 122 269 z "},"-":{"ha":514,"x_min":0,"x_max":0,"o":"m 468 261 l 468 494 l 53 494 l 53 261 z "},".":{"ha":486,"x_min":0,"x_max":0,"o":"m 247 -17 b 404 142 335 -17 404 54 b 247 300 404 229 335 300 b 89 142 160 300 89 229 b 247 -17 89 54 160 -17 z "},"/":{"ha":486,"x_min":0,"x_max":0,"o":"m 176 -22 l 476 1075 l 336 1075 l 36 -22 z "},":":{"ha":486,"x_min":0,"x_max":0,"o":"m 244 444 b 403 604 332 444 403 515 b 244 764 403 690 332 764 b 85 604 157 764 85 692 b 244 444 85 515 157 444 z m 244 -17 b 403 142 332 -17 403 54 b 244 301 403 229 332 301 b 85 142 157 301 85 229 b 244 -17 85 54 157 -17 z "},";":{"ha":486,"x_min":0,"x_max":0,"o":"m 265 444 b 425 604 353 444 425 515 b 265 764 425 690 353 764 b 107 604 178 764 107 690 b 265 444 107 515 178 444 z m 0 -118 l 228 -118 l 379 269 l 122 269 z "},"<":{"ha":992,"x_min":0,"x_max":0,"o":"m 867 676 l 97 358 l 97 232 l 867 -75 l 867 200 l 361 368 l 867 581 z "},"=":{"ha":1007,"x_min":0,"x_max":0,"o":"m 106 617 l 901 617 l 901 872 l 106 872 z m 106 204 l 901 204 l 901 458 l 106 458 z "},">":{"ha":992,"x_min":0,"x_max":0,"o":"m 97 581 l 603 368 l 97 200 l 97 -75 l 867 232 l 867 357 l 97 676 z "},"?":{"ha":799,"x_min":0,"x_max":0,"o":"m 354 -17 b 511 142 444 -14 508 53 b 354 300 508 231 442 297 b 196 142 265 297 199 229 b 354 -17 199 54 263 -14 z m 231 540 l 231 414 l 468 414 l 514 540 b 668 800 594 579 668 656 b 385 1106 668 968 568 1100 b 108 838 167 1097 108 915 l 108 828 l 185 828 b 379 1035 185 892 236 1031 b 586 811 496 1032 586 949 b 379 582 586 683 508 582 l 338 582 l 322 540 z "},"@":{"ha":1365,"x_min":0,"x_max":0,"o":"m 785 361 b 675 253 782 299 735 253 b 567 361 615 253 567 301 b 675 474 567 424 614 471 b 785 361 738 471 782 425 z m 365 492 b 342 367 350 453 342 411 b 615 50 342 178 460 50 b 789 119 704 50 753 86 b 988 32 789 119 856 32 b 1242 371 1156 32 1242 146 b 707 915 1242 665 1028 915 b 124 356 364 915 124 674 b 683 -204 124 18 382 -201 b 924 -153 763 -204 843 -186 l 879 -51 b 683 -94 819 -82 753 -94 b 239 357 428 -94 239 88 b 257 493 239 406 244 450 l 225 493 b 688 842 286 692 475 842 b 1142 493 871 842 1088 731 l 1111 493 b 1128 372 1122 456 1128 415 b 1022 146 1128 226 1103 146 b 978 193 999 149 978 165 l 978 492 l 1003 492 l 1003 664 l 942 664 l 931 542 b 665 681 879 607 799 681 b 349 492 532 681 408 611 z m 429 493 b 654 614 472 569 563 614 b 888 493 750 614 835 571 z "},"A":{"ha":1049,"x_min":0,"x_max":0,"o":"m 581 1075 l 476 1075 l 253 494 l 165 494 l 0 0 l 300 0 l 340 140 l 692 140 l 732 0 l 1049 0 l 883 494 l 801 494 z m 422 414 l 444 494 l 333 494 l 526 1015 l 719 494 l 592 494 l 617 414 z "},"B":{"ha":974,"x_min":0,"x_max":0,"o":"m 53 0 l 517 0 b 942 306 711 0 936 46 b 867 496 939 394 913 449 l 747 496 b 601 569 703 536 647 560 b 771 818 683 604 771 671 b 407 1075 771 1031 589 1075 l 161 1075 l 161 496 l 53 496 z m 690 808 b 407 606 690 653 553 606 l 243 606 l 243 999 l 406 999 b 690 808 526 999 686 985 z m 635 350 b 478 228 629 246 551 228 l 356 228 l 356 468 l 463 468 b 635 350 558 468 632 451 z "},"C":{"ha":1086,"x_min":0,"x_max":0,"o":"m 93 244 b 588 -29 189 75 367 -29 b 1053 207 789 -29 957 60 l 800 388 b 588 267 756 314 674 267 b 329 490 460 267 351 364 l 124 490 b 121 538 122 506 121 521 b 599 1014 125 817 342 1013 b 956 874 736 1014 865 969 l 1014 926 b 599 1092 908 1038 760 1092 b 39 539 288 1092 43 850 b 42 490 39 522 40 506 l 22 490 b 93 244 29 399 53 317 z "},"D":{"ha":1054,"x_min":0,"x_max":0,"o":"m 949 497 b 951 549 950 514 951 531 b 376 1075 943 931 661 1075 l 124 1075 l 124 497 l 53 497 l 53 0 l 417 0 b 1019 497 710 0 989 125 z m 717 497 b 388 231 699 318 569 231 l 358 231 l 358 497 l 206 497 l 206 999 l 361 999 b 869 549 651 999 865 844 b 867 497 869 531 868 514 z "},"E":{"ha":947,"x_min":0,"x_max":0,"o":"m 925 0 l 925 231 l 356 231 l 356 432 l 626 432 l 626 569 l 244 569 l 244 999 l 815 999 l 815 1075 l 161 1075 l 161 494 l 53 494 l 53 0 z "},"F":{"ha":760,"x_min":0,"x_max":0,"o":"m 356 0 l 356 422 l 554 422 l 554 571 l 169 571 l 169 999 l 749 999 l 749 1075 l 88 1075 l 88 499 l 53 499 l 53 0 z "},"G":{"ha":1188,"x_min":0,"x_max":0,"o":"m 33 492 b 600 -17 51 196 285 -17 b 890 53 724 -17 819 8 l 890 0 l 1135 0 l 1135 571 l 669 571 l 669 376 l 826 376 b 600 269 826 376 800 269 b 342 492 465 269 360 367 l 156 492 b 153 542 154 508 153 525 b 611 1011 157 813 328 1011 b 982 839 806 1011 936 928 l 1053 883 b 615 1089 993 1001 836 1089 b 74 538 268 1089 78 858 b 76 492 74 522 75 507 z "},"H":{"ha":1029,"x_min":0,"x_max":0,"o":"m 53 0 l 358 0 l 358 449 l 674 449 l 674 0 l 978 0 l 978 496 l 883 496 l 883 1075 l 801 1075 l 801 563 l 229 563 l 229 1075 l 147 1075 l 147 496 l 53 496 z "},"I":{"ha":406,"x_min":0,"x_max":0,"o":"m 357 0 l 357 496 l 244 496 l 244 1075 l 163 1075 l 163 496 l 50 496 l 50 0 z "},"J":{"ha":838,"x_min":0,"x_max":0,"o":"m 479 418 b 346 240 479 313 442 240 b 183 350 239 240 183 350 l 1 179 b 347 -17 1 163 104 -17 b 785 442 658 -17 785 160 l 785 490 l 715 490 l 715 1075 l 632 1075 l 632 490 l 479 490 z "},"K":{"ha":1063,"x_min":0,"x_max":0,"o":"m 210 510 l 210 1075 l 128 1075 l 128 490 l 50 490 l 50 0 l 356 0 l 356 329 l 464 461 l 693 0 l 1033 0 l 783 490 l 576 490 l 454 649 l 881 1075 l 775 1075 z "},"L":{"ha":838,"x_min":0,"x_max":0,"o":"m 818 0 l 818 238 l 356 238 l 356 496 l 211 496 l 211 1075 l 128 1075 l 128 496 l 53 496 l 53 0 z "},"M":{"ha":1207,"x_min":0,"x_max":0,"o":"m 53 0 l 354 0 l 354 494 l 194 494 l 194 939 l 575 43 l 626 43 l 1008 932 l 1008 494 l 853 494 l 853 0 l 1151 0 l 1151 494 l 1088 494 l 1088 1075 l 988 1075 l 740 490 l 464 490 l 215 1075 l 115 1075 l 115 494 l 53 494 z "},"N":{"ha":1049,"x_min":0,"x_max":0,"o":"m 53 0 l 356 0 l 356 493 l 236 493 l 236 985 l 815 0 l 996 0 l 996 493 l 890 493 l 890 1075 l 811 1075 l 811 493 l 614 493 l 271 1075 l 157 1075 l 157 493 l 53 493 z "},"O":{"ha":1193,"x_min":0,"x_max":0,"o":"m 1158 504 b 596 1094 1158 869 910 1094 b 35 504 283 1094 35 872 b 596 -14 35 221 282 -14 l 601 -14 b 1158 504 904 -14 1158 214 z m 850 497 b 601 272 829 374 738 272 b 343 497 468 272 365 371 l 121 497 b 118 542 119 511 118 526 b 596 1017 122 819 340 1017 b 1075 542 863 1017 1071 813 b 1074 497 1075 526 1074 511 z "},"P":{"ha":842,"x_min":0,"x_max":0,"o":"m 747 746 b 439 504 743 536 578 504 l 226 504 l 226 999 l 467 999 b 747 746 599 999 743 946 z m 53 0 l 357 0 l 357 428 l 457 428 b 825 756 669 428 825 538 b 494 1075 825 1022 604 1075 l 144 1075 l 144 494 l 53 494 z "},"Q":{"ha":1228,"x_min":0,"x_max":0,"o":"m 1079 217 b 1178 539 1135 299 1178 407 b 613 1101 1178 871 926 1101 b 50 554 283 1101 50 850 b 618 -11 50 225 275 -11 b 910 63 728 -11 828 18 l 1006 -37 l 1169 126 z m 674 276 b 618 271 656 271 635 271 b 354 500 486 274 376 369 l 139 500 b 135 564 136 518 135 544 b 613 1024 139 847 363 1024 b 1094 564 876 1024 1094 833 b 1092 500 1094 544 1094 518 l 872 500 b 844 426 865 474 857 447 l 754 519 l 590 365 z "},"R":{"ha":981,"x_min":0,"x_max":0,"o":"m 199 999 l 436 999 b 704 771 596 999 704 942 b 482 540 704 638 618 540 l 199 540 z m 356 0 l 356 367 l 476 367 l 658 0 l 999 0 l 696 542 b 788 776 754 607 788 675 b 439 1075 788 1013 617 1075 l 118 1075 l 118 493 l 53 493 l 53 0 z "},"S":{"ha":967,"x_min":0,"x_max":0,"o":"m 699 494 b 503 593 650 533 574 565 b 228 828 333 657 228 700 b 449 1014 228 926 297 1014 b 722 911 547 1014 633 978 l 783 979 b 464 1090 696 1039 596 1090 b 150 814 293 1090 150 1006 b 457 511 150 632 306 571 l 503 493 b 628 310 531 482 628 440 b 493 246 628 257 546 246 b 151 346 386 246 236 286 l 11 118 b 465 -17 122 43 297 -17 b 933 325 747 -17 933 82 b 883 494 933 393 911 450 z "},"T":{"ha":790,"x_min":0,"x_max":0,"o":"m 547 0 l 547 492 l 438 492 l 438 996 l 786 996 l 786 1075 l 6 1075 l 6 996 l 354 996 l 354 492 l 243 492 l 243 0 z "},"U":{"ha":1011,"x_min":0,"x_max":0,"o":"m 656 451 b 494 256 656 361 636 256 b 336 451 356 256 336 365 l 336 496 l 207 496 l 207 1075 l 128 1075 l 128 496 l 32 496 l 32 463 b 496 -15 32 240 92 -15 b 958 463 889 -15 958 253 l 958 496 l 863 496 l 863 1075 l 783 1075 l 783 496 l 656 496 z "},"V":{"ha":781,"x_min":0,"x_max":0,"o":"m 365 494 l 281 494 l 97 1075 l 13 1075 l 194 494 l 69 494 l 251 -3 l 526 -3 l 710 494 l 586 494 l 768 1075 l 681 1075 l 497 494 l 418 494 l 392 403 z "},"W":{"ha":1326,"x_min":0,"x_max":0,"o":"m 378 494 l 279 494 l 99 1075 l 13 1075 l 193 494 l 104 494 l 260 -3 l 525 -3 l 656 494 l 549 494 l 660 947 l 761 494 l 689 494 l 821 -3 l 1086 -3 l 1233 494 l 1121 494 l 1315 1075 l 1228 1075 l 1038 494 l 961 494 l 943 406 l 922 494 l 843 494 l 708 1075 l 615 1075 l 469 494 l 417 494 l 397 406 z "},"X":{"ha":1108,"x_min":0,"x_max":0,"o":"m 346 0 l 486 226 l 550 346 l 614 226 l 753 0 l 1108 0 l 778 493 l 656 493 l 611 549 l 1024 1075 l 919 1075 l 554 604 l 188 1075 l 85 1075 l 494 549 l 451 493 l 332 493 l 0 0 z "},"Y":{"ha":907,"x_min":0,"x_max":0,"o":"m 293 0 l 599 0 l 599 494 l 538 494 l 903 1075 l 803 1075 l 454 515 l 101 1075 l 3 1075 l 368 494 l 293 494 z "},"Z":{"ha":983,"x_min":0,"x_max":0,"o":"m 19 0 l 967 0 l 967 228 l 406 228 l 921 1008 l 921 1075 l 208 1075 l 208 999 l 825 999 l 490 494 l 251 494 l 19 238 z "},"[":{"ha":574,"x_min":0,"x_max":0,"o":"m 132 494 l 132 -161 l 551 -161 l 551 0 l 378 0 l 378 494 l 274 494 l 274 1000 l 489 1000 l 489 1075 l 193 1075 l 193 494 z "},"\\":{"ha":486,"x_min":0,"x_max":0,"o":"m 481 -96 l 144 1143 l 3 1143 l 339 -96 z "},"]":{"ha":574,"x_min":0,"x_max":0,"o":"m 418 494 l 418 1075 l 122 1075 l 122 1000 l 338 1000 l 338 494 l 233 494 l 233 0 l 60 0 l 60 -161 l 479 -161 l 479 494 z "},"^":{"ha":388,"x_min":0,"x_max":0,"o":"m -75 738 l 4 738 l 203 986 l 400 738 l 483 738 l 238 1053 l 169 1053 z "},"_":{"ha":883,"x_min":0,"x_max":0,"o":"m 0 -285 l 883 -285 l 883 -60 l 0 -60 z "},"`":{"ha":464,"x_min":0,"x_max":0,"o":"m 192 817 l 256 817 l 157 1068 l 35 1053 z "},"a":{"ha":864,"x_min":0,"x_max":0,"o":"m 531 235 b 413 150 526 175 471 150 b 290 235 360 150 294 171 b 413 332 290 301 350 331 b 531 235 468 332 526 300 z m 526 492 b 531 467 529 483 531 475 l 531 428 b 328 486 482 467 394 486 b 18 235 171 486 18 413 b 301 -17 18 72 150 -17 b 522 60 454 -17 522 60 l 531 0 l 807 0 l 807 390 b 797 492 807 428 803 461 l 726 492 b 407 754 714 665 575 754 b 213 725 296 754 213 725 l 232 653 b 379 678 232 653 300 678 b 643 500 485 678 638 633 l 643 492 z "},"b":{"ha":903,"x_min":0,"x_max":0,"o":"m 504 494 b 596 368 558 475 593 425 b 458 235 593 292 533 235 b 319 368 381 235 322 292 b 411 494 321 425 357 475 l 196 494 b 471 675 242 608 351 675 b 735 494 603 675 688 603 z m 790 567 b 475 754 722 685 611 751 b 165 597 328 749 222 671 l 165 1075 l 83 1075 l 83 494 l 53 494 l 53 0 l 301 0 l 311 68 b 529 -17 351 22 411 -17 b 871 368 728 -17 871 144 b 856 494 871 414 865 456 l 821 494 b 790 567 813 519 803 544 z "},"c":{"ha":760,"x_min":0,"x_max":0,"o":"m 32 367 b 419 -17 32 150 182 -17 b 749 160 574 -17 682 54 l 529 313 b 419 233 507 264 474 233 b 299 371 346 233 299 289 b 360 492 299 425 321 472 l 132 492 b 401 678 169 611 264 678 b 665 518 528 678 618 621 l 731 563 b 401 754 668 683 547 754 b 32 367 183 754 35 603 z "},"d":{"ha":903,"x_min":0,"x_max":0,"o":"m 50 494 b 32 368 39 456 32 414 b 381 -17 32 140 186 -17 b 597 71 479 -17 543 22 l 607 0 l 849 0 l 849 494 l 818 494 l 818 1075 l 736 1075 l 736 597 b 426 754 679 671 576 749 b 81 494 258 750 132 649 z m 181 522 b 432 678 228 617 315 678 b 708 494 549 678 657 610 l 493 494 b 583 368 547 474 581 425 b 443 233 581 290 518 233 b 306 368 367 233 308 290 b 393 494 307 424 339 472 l 169 494 b 181 522 172 504 176 513 z "},"e":{"ha":832,"x_min":0,"x_max":0,"o":"m 419 -17 b 776 160 689 -17 776 160 l 579 275 b 440 203 579 275 542 203 b 294 324 328 203 294 290 l 796 324 b 803 386 801 343 803 365 b 785 496 803 424 796 463 l 768 496 b 421 754 722 633 625 754 b 61 496 243 754 118 658 l 49 496 b 29 368 36 457 29 414 b 419 -17 29 144 178 -17 z m 417 682 b 690 496 585 679 656 582 l 521 496 b 538 431 532 475 538 454 l 294 431 b 314 496 294 454 300 475 l 144 496 b 417 682 174 582 256 679 z "},"f":{"ha":475,"x_min":0,"x_max":0,"o":"m 199 656 l 199 493 l 104 493 l 104 0 l 381 0 l 381 493 l 282 493 l 282 656 l 422 656 l 422 731 l 282 731 l 282 903 b 388 1004 282 978 317 1004 l 457 1004 l 457 1075 l 363 1075 b 199 915 282 1075 199 1025 l 199 731 l 68 731 l 68 656 z "},"g":{"ha":931,"x_min":0,"x_max":0,"o":"m 829 738 l 756 738 l 749 606 b 447 753 713 651 606 753 b 97 494 286 753 149 649 l 47 494 b 32 378 38 458 32 419 b 381 3 32 156 169 3 b 601 89 500 3 582 61 l 601 26 b 394 -112 601 -69 540 -112 b 193 -47 299 -112 193 -51 l 107 -235 b 443 -315 157 -261 290 -315 b 875 110 804 -314 875 -93 l 875 494 l 829 494 z m 567 471 b 607 375 593 444 607 413 b 451 231 607 304 558 231 b 304 375 374 231 307 283 b 376 494 306 428 331 468 l 181 494 b 454 679 226 608 333 679 b 724 494 581 679 681 607 l 535 494 b 567 471 547 488 558 481 z "},"h":{"ha":808,"x_min":0,"x_max":0,"o":"m 499 0 l 775 0 l 775 497 l 726 497 b 497 751 726 599 704 750 b 183 600 357 751 256 681 l 183 1075 l 100 1075 l 100 497 l 53 497 l 53 0 l 329 0 l 329 497 l 194 497 b 490 676 246 574 346 676 b 643 497 608 676 643 606 l 499 497 z "},"i":{"ha":382,"x_min":0,"x_max":0,"o":"m 53 494 l 53 0 l 329 0 l 329 494 l 231 494 l 231 738 l 149 738 l 149 494 z m 233 893 l 233 1075 l 147 1075 l 147 893 z "},"j":{"ha":429,"x_min":0,"x_max":0,"o":"m 200 738 l 200 494 l 99 494 l 99 75 b 13 -37 99 -21 74 -37 l 0 -37 l 0 -297 l 63 -297 b 375 67 354 -297 375 -108 l 375 494 l 281 494 l 281 738 z m 281 894 l 281 1075 l 200 1075 l 200 894 z "},"k":{"ha":844,"x_min":0,"x_max":0,"o":"m 53 494 l 53 0 l 329 0 l 329 278 l 525 0 l 844 0 l 463 494 l 715 738 l 601 738 l 347 494 l 249 494 l 249 1075 l 167 1075 l 167 494 z "},"l":{"ha":382,"x_min":0,"x_max":0,"o":"m 53 494 l 53 0 l 329 0 l 329 494 l 232 494 l 232 1075 l 150 1075 l 150 494 z "},"m":{"ha":1203,"x_min":0,"x_max":0,"o":"m 881 0 l 1157 0 l 1157 493 l 1118 493 l 1118 499 b 896 754 1118 667 1044 754 b 614 610 761 754 674 683 b 407 754 594 682 532 754 b 135 614 275 754 188 681 l 129 738 l 53 738 l 53 0 l 329 0 l 329 493 l 135 493 b 403 676 179 579 268 676 b 547 493 526 676 540 599 l 469 493 l 469 0 l 740 0 l 740 493 l 628 493 b 883 676 676 593 749 676 b 1036 493 1013 676 1029 601 l 882 493 z "},"n":{"ha":825,"x_min":0,"x_max":0,"o":"m 53 497 l 53 0 l 329 0 l 329 494 l 190 494 b 483 676 239 569 339 676 b 644 494 636 676 644 561 l 497 494 l 497 0 l 776 0 l 776 494 l 726 494 b 500 754 726 639 683 754 b 188 607 342 754 249 676 l 182 738 l 106 738 l 106 497 z "},"o":{"ha":868,"x_min":0,"x_max":0,"o":"m 433 -17 b 836 368 689 -17 836 163 b 433 750 836 583 660 750 b 32 368 225 750 32 592 b 433 -17 32 156 189 -17 z m 483 494 b 569 368 536 474 567 424 b 433 233 567 290 510 236 b 299 368 361 236 299 290 b 383 494 299 424 332 474 l 151 494 b 433 674 193 611 299 674 b 717 494 569 674 669 614 z "},"p":{"ha":911,"x_min":0,"x_max":0,"o":"m 519 493 b 601 364 572 465 599 419 b 467 233 599 286 544 233 b 326 364 394 233 329 285 b 408 490 328 418 358 472 l 192 490 b 469 676 232 607 339 674 b 740 493 603 672 700 604 z m 826 493 b 469 754 781 653 643 754 b 169 597 311 754 215 674 l 164 738 l 88 738 l 88 490 l 53 490 l 53 -297 l 329 -297 l 329 53 b 538 -18 361 24 435 -18 b 876 374 733 -18 874 151 b 863 493 876 415 872 454 z "},"q":{"ha":903,"x_min":0,"x_max":0,"o":"m 49 493 b 32 369 38 454 32 414 b 379 -18 32 139 179 -18 b 574 57 468 -18 528 14 l 574 -297 l 850 -297 l 850 493 l 818 493 l 818 738 l 743 738 l 736 597 b 438 754 692 674 600 754 b 81 493 265 754 126 653 z m 167 493 b 438 678 210 606 308 678 b 715 493 568 678 674 611 l 501 493 b 583 368 551 469 581 424 b 446 233 581 290 521 233 b 308 368 372 233 311 289 b 390 493 310 424 339 469 z "},"r":{"ha":474,"x_min":0,"x_max":0,"o":"m 328 0 l 328 494 l 226 494 b 463 676 260 608 339 672 l 463 754 b 208 582 342 754 261 694 l 201 738 l 126 738 l 126 494 l 53 494 l 53 0 z "},"s":{"ha":718,"x_min":0,"x_max":0,"o":"m 225 494 b 171 571 190 510 171 536 b 360 679 171 639 258 679 b 588 600 436 679 519 646 l 632 669 b 363 756 557 721 453 756 b 46 522 46 756 46 574 b 438 213 46 328 438 313 b 361 175 438 185 397 175 b 113 276 290 175 199 213 l 8 106 b 383 -17 124 15 229 -17 b 707 233 585 -17 707 72 b 503 494 707 415 503 494 z "},"t":{"ha":540,"x_min":0,"x_max":0,"o":"m 419 661 l 419 738 l 281 738 l 281 968 l 199 968 l 199 738 l 74 738 l 74 661 l 199 661 l 199 494 l 97 494 l 97 175 b 333 0 97 142 115 0 l 511 0 l 511 231 l 432 231 b 375 294 385 231 375 257 l 375 494 l 281 494 l 281 661 z "},"u":{"ha":822,"x_min":0,"x_max":0,"o":"m 110 738 l 110 494 l 46 494 l 46 210 b 258 -17 46 72 114 -17 b 496 89 386 -17 464 46 l 504 0 l 769 0 l 769 494 l 721 494 l 721 738 l 638 738 l 638 494 l 496 494 l 496 340 b 401 214 496 285 472 214 b 329 328 346 214 329 260 l 329 494 l 192 494 l 192 738 z "},"v":{"ha":728,"x_min":0,"x_max":0,"o":"m 628 738 l 531 494 l 453 494 l 364 254 l 278 494 l 208 494 l 104 738 l 24 738 l 128 494 l 18 494 l 213 -3 l 508 -3 l 710 494 l 611 494 l 710 738 z "},"w":{"ha":1110,"x_min":0,"x_max":0,"o":"m 1006 738 l 917 494 l 846 494 l 778 271 l 719 494 l 658 494 l 583 738 l 514 738 l 442 494 l 394 494 l 332 271 l 265 494 l 196 494 l 106 738 l 26 738 l 117 494 l 18 494 l 171 -3 l 461 -3 l 556 350 l 653 -3 l 940 -3 l 1092 494 l 993 494 l 1082 738 z "},"x":{"ha":836,"x_min":0,"x_max":0,"o":"m 75 738 l 271 494 l 178 494 l 260 369 l 11 0 l 300 0 l 417 192 l 531 0 l 828 0 l 581 374 l 661 494 l 567 494 l 763 738 l 668 738 l 418 425 l 171 738 z "},"y":{"ha":714,"x_min":0,"x_max":0,"o":"m 17 738 l 122 493 l 21 493 l 231 -51 b 171 -92 214 -78 190 -92 b 100 -71 157 -92 128 -82 l -14 -261 b 200 -314 107 -314 156 -314 b 479 -42 363 -314 426 -171 l 696 493 l 606 493 l 704 738 l 621 738 l 525 493 l 453 493 l 361 235 l 272 493 l 204 493 l 97 738 z "},"z":{"ha":743,"x_min":0,"x_max":0,"o":"m 19 247 l 19 0 l 714 0 l 714 211 l 338 211 l 700 494 l 467 494 l 706 681 l 706 738 l 111 738 l 111 664 l 575 664 z "},"{":{"ha":592,"x_min":0,"x_max":0,"o":"m 54 493 l 54 335 b 186 186 133 335 181 269 l 186 35 b 483 -217 188 -175 368 -217 b 561 -214 525 -217 561 -214 l 561 -22 b 514 -25 561 -22 543 -25 b 408 58 471 -25 408 -10 l 408 256 b 243 479 408 363 342 426 b 329 668 297 511 329 572 l 329 800 b 549 1046 329 925 349 992 l 549 1101 b 253 793 296 1038 253 951 l 253 671 b 169 493 253 585 232 524 z "},"|":{"ha":461,"x_min":0,"x_max":0,"o":"m 132 -271 l 329 -271 l 329 1075 l 132 1075 z "},"}":{"ha":592,"x_min":0,"x_max":0,"o":"m 424 493 b 340 671 361 524 340 585 l 340 793 b 44 1101 340 951 297 1038 l 44 1046 b 264 800 244 992 264 925 l 264 668 b 350 479 264 572 296 511 b 185 256 251 426 185 363 l 185 58 b 79 -25 185 -10 122 -25 b 32 -22 50 -25 32 -22 l 32 -214 b 110 -217 32 -214 68 -217 b 407 35 225 -217 406 -175 l 407 186 b 539 335 413 269 460 335 l 539 493 z "},"~":{"ha":974,"x_min":0,"x_max":0,"o":"m 699 714 b 604 603 650 614 633 603 b 353 707 560 603 418 707 b 106 436 253 707 189 636 l 275 361 b 369 472 324 458 340 472 b 622 369 414 472 556 369 b 868 640 721 369 785 440 z "},"†":{"ha":886,"x_min":0,"x_max":0,"o":"m 744 690 l 744 785 l 488 758 l 488 1075 l 403 1075 l 403 758 l 147 785 l 147 690 l 404 717 l 404 494 l 347 494 l 347 0 l 540 0 l 540 494 l 486 494 l 486 717 z "},"°":{"ha":567,"x_min":0,"x_max":0,"o":"m 36 846 b 275 603 36 713 140 603 b 511 846 407 603 511 714 b 275 1075 511 978 401 1075 b 36 846 146 1075 36 974 z m 275 668 b 104 846 178 668 104 750 b 275 1010 104 939 182 1010 b 447 846 368 1010 447 943 b 275 668 447 750 374 668 z "},"£":{"ha":871,"x_min":0,"x_max":0,"o":"m 683 758 b 690 819 688 778 690 796 b 419 1075 690 960 569 1075 b 146 797 269 1075 146 960 b 206 554 146 718 176 676 l 64 554 l 64 494 l 32 494 l 32 463 l 158 463 l 165 401 b 32 253 165 286 92 268 l 32 0 l 564 0 b 818 288 785 0 818 146 l 565 288 b 486 219 553 239 547 219 l 336 219 b 433 413 336 219 433 286 l 433 463 l 592 463 l 592 494 l 456 494 l 456 554 l 286 554 l 283 568 b 225 799 260 674 225 725 b 433 999 225 928 329 999 b 614 804 546 999 614 913 b 608 758 614 789 613 779 z "},"•":{"ha":889,"x_min":0,"x_max":0,"o":"m 215 538 b 444 308 215 410 318 308 b 675 538 571 308 675 410 b 444 768 675 664 571 768 b 215 538 318 768 215 664 z "},"¶":{"ha":1311,"x_min":0,"x_max":0,"o":"m 526 274 l 526 -299 l 781 -299 l 781 494 l 661 494 l 661 1076 l 547 1076 b 199 710 311 1076 199 913 b 526 274 199 483 340 274 z m 910 -299 l 1163 -299 l 1163 494 l 989 494 l 989 1075 l 910 1075 z "},"´":{"ha":464,"x_min":0,"x_max":0,"o":"m 360 1053 l 238 1068 l 139 817 l 203 817 z "},"¨":{"ha":496,"x_min":0,"x_max":0,"o":"m 22 817 l 167 817 l 167 960 l 22 960 z m 329 817 l 474 817 l 474 960 l 329 960 z "},"Ø":{"ha":1228,"x_min":0,"x_max":0,"o":"m 215 124 l 67 -79 l 258 -79 l 340 31 b 618 -17 375 15 469 -17 b 1176 554 928 -17 1176 183 b 958 985 1176 731 1090 886 l 1074 1154 l 1007 1154 l 913 1015 b 617 1100 825 1068 724 1100 b 53 494 314 1100 57 860 b 215 124 65 276 178 161 z m 361 494 l 142 494 b 139 554 140 514 139 533 b 617 1024 139 817 358 1024 b 869 953 708 1024 794 997 l 449 333 b 361 494 403 374 371 431 z m 871 493 b 619 269 851 367 744 269 b 493 303 574 269 531 282 l 915 921 b 1099 554 1025 836 1099 704 b 1094 493 1099 533 1097 514 z "},"±":{"ha":1025,"x_min":0,"x_max":0,"o":"m 919 -176 l 919 57 l 106 57 l 106 -176 z m 546 574 l 546 907 l 478 907 l 478 574 l 106 574 l 106 421 l 378 421 l 378 169 l 647 169 l 647 421 l 919 421 l 919 574 z "},"¥":{"ha":1042,"x_min":0,"x_max":0,"o":"m 376 494 l 389 472 l 222 472 l 222 356 l 408 356 l 408 278 l 222 278 l 222 206 l 408 206 l 408 0 l 663 0 l 663 206 l 860 206 l 860 278 l 663 278 l 663 356 l 860 356 l 860 472 l 671 472 l 685 494 l 629 494 l 936 1053 l 835 1053 l 546 494 l 533 494 l 246 1053 l 139 1053 l 444 494 z "},"ª":{"ha":575,"x_min":0,"x_max":0,"o":"m 74 489 l 443 489 l 443 533 l 74 533 z m 397 629 l 443 629 l 443 906 b 254 1075 443 1004 374 1075 b 139 1058 178 1075 139 1058 l 150 1015 b 238 1031 150 1015 186 1031 b 393 925 335 1031 393 979 l 393 876 b 249 938 365 901 321 938 b 71 779 158 938 71 881 b 249 619 71 689 143 619 b 393 671 347 619 393 671 z m 393 779 b 251 665 393 708 322 665 b 118 776 181 665 118 708 b 253 892 118 847 185 892 b 393 779 317 892 393 853 z "},"º":{"ha":579,"x_min":0,"x_max":0,"o":"m 61 846 b 300 603 61 713 165 603 b 536 846 432 603 536 714 b 300 1075 536 978 426 1075 b 61 846 171 1075 61 974 z m 300 668 b 129 846 203 668 129 750 b 300 1010 129 939 207 1010 b 472 846 393 1010 472 943 b 300 668 472 750 399 668 z m 65 489 l 536 489 l 536 533 l 65 533 z "},"æ":{"ha":1410,"x_min":0,"x_max":0,"o":"m 999 -17 b 1356 160 1268 -17 1356 160 l 1158 275 b 1019 203 1158 275 1121 203 b 874 324 907 203 874 290 l 1375 324 b 1382 358 1375 324 1382 344 b 1364 496 1381 408 1375 454 l 1347 496 b 1000 754 1301 633 1204 754 b 696 604 867 754 763 700 b 407 754 643 704 533 754 b 213 725 296 754 213 725 l 232 653 b 379 678 232 653 300 678 b 643 503 483 678 635 633 l 642 492 l 526 492 b 531 467 529 483 531 475 l 531 428 b 328 486 482 467 394 486 b 18 235 171 486 18 413 b 301 -17 18 72 150 -17 b 522 60 454 -17 522 60 l 531 0 l 807 0 l 807 25 b 999 -17 861 -1 925 -17 z m 996 676 b 1269 496 1164 674 1235 582 l 1100 496 b 1117 431 1111 475 1117 454 l 874 431 b 893 496 874 454 879 475 l 726 496 b 725 501 726 497 725 499 b 996 676 756 585 838 674 z m 531 235 b 413 150 526 175 471 150 b 290 235 360 150 294 171 b 413 332 290 301 350 331 b 531 235 468 332 526 300 z "},"ø":{"ha":886,"x_min":0,"x_max":0,"o":"m 161 486 b 450 676 207 592 314 676 b 593 635 503 676 551 667 l 347 275 b 308 368 324 299 308 332 b 382 486 308 417 338 463 z m 822 486 b 688 675 799 568 750 632 l 783 817 l 717 817 l 639 701 b 446 754 581 740 514 754 b 68 486 271 754 118 646 l 60 486 b 42 368 49 449 42 410 b 157 85 42 213 117 117 l 35 -79 l 183 -79 l 254 14 b 446 -18 308 -14 376 -18 b 846 368 704 -18 846 167 b 832 486 846 414 840 453 z m 639 606 b 732 486 681 575 713 533 l 558 486 z m 579 369 b 443 236 579 297 519 236 b 394 244 425 236 410 239 l 542 463 b 579 369 565 438 579 404 z "},"¿":{"ha":803,"x_min":0,"x_max":0,"o":"m 532 944 b 456 1022 529 989 499 1019 b 378 944 413 1019 378 989 b 456 867 378 901 410 867 b 532 944 501 867 529 901 z m 189 494 b 42 221 108 449 42 363 b 426 -126 42 -1 210 -126 b 799 221 683 -126 799 57 l 533 221 b 426 106 533 183 504 106 b 322 213 364 106 322 151 b 543 336 322 306 421 336 l 572 361 l 572 494 l 486 494 l 486 704 l 424 704 l 411 494 z "},"¡":{"ha":486,"x_min":0,"x_max":0,"o":"m 244 1033 b 163 951 199 1031 163 997 b 244 869 163 906 199 869 b 325 951 290 869 322 906 b 244 1033 322 999 293 1031 z m 72 -85 l 415 -85 l 357 494 l 283 494 l 283 757 l 208 757 l 208 494 l 131 494 z "},"¬":{"ha":992,"x_min":0,"x_max":0,"o":"m 654 -11 l 886 -11 l 886 494 l 106 494 l 106 261 l 654 261 z "},"ƒ":{"ha":886,"x_min":0,"x_max":0,"o":"m 297 494 l 250 126 b 125 -69 238 25 219 -69 b 31 -44 93 -69 64 -64 l 3 -265 b 183 -290 60 -285 122 -290 b 515 92 367 -290 469 -199 l 579 494 l 472 494 l 479 550 l 663 550 l 663 622 l 490 622 b 701 1001 511 756 517 1001 b 763 989 722 1001 743 996 l 775 1065 b 700 1078 750 1072 725 1078 b 414 657 467 1078 431 796 l 410 622 l 215 622 l 215 550 l 400 550 l 392 494 z "},"«":{"ha":750,"x_min":0,"x_max":0,"o":"m 193 224 l 450 224 l 258 482 l 456 738 l 194 738 l 1 482 z m 407 481 l 601 224 l 711 224 l 518 481 l 711 738 l 601 738 z "},"»":{"ha":746,"x_min":0,"x_max":0,"o":"m 744 482 l 551 738 l 290 738 l 488 482 l 296 224 l 553 224 z m 147 738 l 38 738 l 231 481 l 38 224 l 147 224 l 342 481 z "}," ":{"ha":886,"x_min":0,"x_max":0,"o":""},"œ":{"ha":1503,"x_min":0,"x_max":0,"o":"m 1088 -17 b 1444 160 1357 -17 1444 160 l 1247 275 b 1108 203 1247 275 1210 203 b 963 324 996 203 963 290 l 1464 324 b 1471 386 1469 343 1471 365 b 1453 496 1471 424 1464 463 l 1436 496 b 1089 754 1390 633 1293 754 b 769 581 944 754 836 692 b 433 750 697 683 575 750 b 32 368 225 750 32 592 b 433 -17 32 156 189 -17 b 764 138 583 -17 696 44 b 1088 -17 829 42 942 -17 z m 483 494 b 569 368 536 474 567 424 b 433 233 567 290 510 236 b 299 368 361 236 299 290 b 383 494 299 424 332 474 l 151 494 b 433 674 193 611 299 674 b 717 494 569 674 669 614 z m 1085 682 b 1358 496 1253 679 1324 582 l 1189 496 b 1206 431 1200 475 1206 454 l 963 431 b 982 496 963 454 968 475 l 813 496 b 1085 682 842 582 924 679 z "},"–":{"ha":950,"x_min":0,"x_max":0,"o":"m 885 261 l 885 494 l 54 494 l 54 261 z "},"—":{"ha":1071,"x_min":0,"x_max":0,"o":"m 1003 261 l 1003 494 l 54 494 l 54 261 z "},"“":{"ha":829,"x_min":0,"x_max":0,"o":"m 551 738 l 656 1075 l 593 1075 l 467 738 z m 288 738 l 392 1075 l 329 1075 l 203 738 z "},"”":{"ha":829,"x_min":0,"x_max":0,"o":"m 306 1075 l 201 738 l 263 738 l 390 1075 z m 568 1075 l 464 738 l 526 738 l 653 1075 z "},"‘":{"ha":486,"x_min":0,"x_max":0,"o":"m 254 738 l 358 1075 l 296 1075 l 169 738 z "},"’":{"ha":486,"x_min":0,"x_max":0,"o":"m 264 1075 l 160 738 l 221 738 l 349 1075 z "},"÷":{"ha":1025,"x_min":0,"x_max":0,"o":"m 514 158 b 647 293 589 158 647 218 b 519 428 647 364 592 425 l 919 428 l 919 661 l 519 661 b 647 796 592 664 647 722 b 514 931 647 869 589 931 b 379 796 440 931 379 869 b 508 661 379 722 438 664 l 106 661 l 106 428 l 508 428 b 379 293 438 425 379 364 b 514 158 379 218 440 158 z "},"⁄":{"ha":632,"x_min":0,"x_max":0,"o":"m -111 0 l 17 0 l 746 1075 l 618 1075 z "},"‹":{"ha":488,"x_min":0,"x_max":0,"o":"m 193 224 l 450 224 l 258 482 l 456 738 l 194 738 l 1 482 z "},"›":{"ha":488,"x_min":0,"x_max":0,"o":"m 486 482 l 293 738 l 32 738 l 229 482 l 38 224 l 294 224 z "},"‡":{"ha":886,"x_min":0,"x_max":0,"o":"m 350 494 l 350 422 l 110 449 l 110 261 l 351 288 l 351 0 l 544 0 l 544 288 l 789 261 l 789 449 l 543 422 l 543 494 l 485 494 l 485 717 l 743 690 l 743 785 l 486 758 l 486 1075 l 403 1075 l 403 758 l 147 785 l 147 690 l 404 717 l 404 494 z "},"·":{"ha":886,"x_min":0,"x_max":0,"o":"m 443 200 b 610 367 535 200 610 274 b 446 533 610 458 538 533 b 279 367 353 533 279 458 b 443 200 279 275 351 200 z "},"‚":{"ha":413,"x_min":0,"x_max":0,"o":"m 286 -99 l 408 285 l 181 285 l 32 -99 z "},"„":{"ha":829,"x_min":0,"x_max":0,"o":"m 318 -99 l 440 285 l 213 285 l 64 -99 z m 657 -99 l 779 285 l 551 285 l 403 -99 z "},"‰":{"ha":1842,"x_min":0,"x_max":0,"o":"m 904 -10 b 1174 264 1054 -10 1174 113 b 904 533 1174 410 1053 533 b 636 264 757 533 636 410 b 904 -10 636 115 756 -10 z m 1489 -10 b 1758 261 1638 -10 1758 113 b 1488 533 1758 410 1636 533 b 1219 265 1340 533 1219 413 b 1489 -10 1219 115 1339 -10 z m 988 260 b 907 179 988 215 951 179 b 824 261 860 179 824 215 b 906 346 824 307 860 346 b 988 260 951 346 988 307 z m 1572 260 b 1490 179 1572 215 1533 179 b 1407 261 1444 179 1407 217 b 1489 346 1407 307 1444 346 b 1572 260 1535 346 1572 306 z m 217 -29 l 356 -29 l 976 1075 l 839 1075 z m 99 833 b 338 590 99 700 203 590 b 574 833 469 590 574 701 b 338 1063 574 965 464 1063 b 99 833 208 1063 99 961 z m 338 656 b 167 833 240 656 167 738 b 338 997 167 926 244 997 b 510 833 431 997 510 931 b 338 656 510 738 436 656 z "},"ı":{"ha":382,"x_min":0,"x_max":0,"o":"m 53 494 l 53 0 l 329 0 l 329 494 l 231 494 l 231 738 l 149 738 l 149 494 z "},"ˆ":{"ha":464,"x_min":0,"x_max":0,"o":"m -8 817 l 65 817 l 175 935 l 286 817 l 363 817 l 208 1006 l 146 1006 z "},"˜":{"ha":571,"x_min":0,"x_max":0,"o":"m 393 811 b 518 956 449 811 490 847 l 465 969 b 392 892 442 907 422 892 b 185 956 331 892 246 956 b 60 811 129 956 88 919 l 113 797 b 186 875 136 860 156 875 b 393 811 247 875 332 811 z "},"¯":{"ha":483,"x_min":0,"x_max":0,"o":"m 442 817 l 442 892 l 42 892 l 42 817 z "},"˘":{"ha":539,"x_min":0,"x_max":0,"o":"m 49 1006 b 268 810 49 883 138 810 b 494 1006 390 810 494 875 l 436 1006 b 265 868 436 919 351 868 b 108 1006 178 868 108 918 z "},"˙":{"ha":229,"x_min":0,"x_max":0,"o":"m 43 817 l 188 817 l 188 960 l 43 960 z "},"˚":{"ha":464,"x_min":0,"x_max":0,"o":"m 235 806 b 399 971 326 806 399 883 b 235 1138 399 1061 325 1138 b 72 971 146 1138 72 1063 b 235 806 72 882 144 806 z m 331 971 b 236 872 331 919 290 872 b 140 971 182 872 140 918 b 235 1071 140 1025 183 1071 b 331 971 286 1071 331 1025 z "},"¸":{"ha":464,"x_min":0,"x_max":0,"o":"m 26 -285 b 207 -318 72 -301 143 -318 b 408 -178 333 -318 408 -257 b 214 -65 408 -78 286 -68 l 264 8 l 161 8 l 110 -81 l 140 -106 l 154 -106 b 250 -150 186 -106 250 -114 b 154 -208 250 -171 250 -208 b 26 -175 90 -208 50 -187 z "},"˝":{"ha":633,"x_min":0,"x_max":0,"o":"m 543 1053 l 421 1068 l 322 817 l 386 817 z m 308 1053 l 186 1068 l 88 817 l 151 817 z "},"˛":{"ha":338,"x_min":0,"x_max":0,"o":"m 296 -194 b 271 -197 296 -194 281 -197 b 163 -129 253 -197 163 -194 b 261 0 163 -57 261 0 l 136 0 b 3 -162 136 0 3 -50 b 206 -307 3 -250 81 -307 b 296 -297 235 -307 267 -304 z "},"ˇ":{"ha":510,"x_min":0,"x_max":0,"o":"m 200 817 l 300 817 l 461 1065 l 399 1065 l 251 886 l 121 1065 l 57 1065 z "},"€":{"ha":810,"x_min":0,"x_max":0,"o":"m 526 586 l 542 674 l 182 674 b 458 996 204 860 282 996 b 701 821 586 996 664 928 l 765 882 b 458 1074 713 1001 614 1074 b 97 674 229 1074 122 906 l 24 674 l 24 586 l 92 586 l 92 492 l 0 492 l 0 340 l 75 340 b 475 -18 110 124 228 -18 b 764 90 603 -18 701 22 l 575 265 b 475 229 539 239 513 229 b 350 340 415 229 372 263 l 474 340 l 500 492 l 175 492 l 175 586 z "},"¦":{"ha":461,"x_min":0,"x_max":0,"o":"m 132 471 l 329 471 l 329 1075 l 132 1075 z m 132 -269 l 329 -269 l 329 335 l 132 335 z "},"Œ":{"ha":1853,"x_min":0,"x_max":0,"o":"m 1839 0 l 1839 231 l 1269 231 l 1269 432 l 1540 432 l 1540 569 l 1158 569 l 1158 999 l 1729 999 l 1729 1075 l 1075 1075 l 1075 832 b 596 1094 976 999 800 1094 b 35 504 283 1094 35 872 b 596 -14 35 221 282 -14 l 601 -14 b 967 114 740 -14 868 33 l 967 0 z m 850 497 b 601 272 829 374 738 272 b 343 497 468 272 365 371 l 121 497 b 118 542 119 511 118 526 b 596 1017 122 819 340 1017 b 1075 542 863 1017 1071 813 b 1074 497 1075 526 1074 511 z "},"™":{"ha":1167,"x_min":0,"x_max":0,"o":"m 329 440 l 329 731 l 264 731 l 264 1028 l 469 1028 l 469 1075 l 8 1075 l 8 1028 l 215 1028 l 215 731 l 149 731 l 149 440 z m 476 440 l 656 440 l 656 732 l 561 732 l 561 994 l 786 465 l 817 465 l 1042 990 l 1042 732 l 950 732 l 950 440 l 1126 440 l 1126 732 l 1089 732 l 1089 1075 l 1029 1075 l 883 729 l 719 729 l 574 1075 l 514 1075 l 514 732 l 476 732 z "},"×":{"ha":1029,"x_min":0,"x_max":0,"o":"m 201 790 l 465 525 l 435 494 l 301 494 l 108 306 l 283 131 l 514 367 l 744 131 l 924 310 l 735 494 l 594 494 l 563 526 l 811 776 l 763 824 l 514 575 l 250 840 z "},"®":{"ha":893,"x_min":0,"x_max":0,"o":"m 431 418 b 133 718 261 418 133 553 b 433 1022 133 883 263 1022 b 729 721 600 1022 729 885 b 431 418 729 554 600 418 z m 431 333 b 815 719 649 333 815 511 b 433 1104 815 928 649 1104 b 47 719 215 1104 47 926 b 431 333 47 510 215 333 z m 329 889 l 417 889 b 515 806 475 889 515 868 b 433 721 515 756 483 721 l 329 721 z m 388 522 l 388 657 l 432 657 l 499 522 l 624 522 l 513 721 b 546 807 533 744 546 769 b 418 917 546 893 483 917 l 300 917 l 300 703 l 276 703 l 276 522 z "},"©":{"ha":914,"x_min":0,"x_max":0,"o":"m 456 68 b 158 368 286 68 158 203 b 458 672 158 533 288 672 b 754 371 625 672 754 535 b 456 68 754 204 625 68 z m 456 -17 b 840 369 674 -17 840 161 b 458 754 840 578 674 754 b 72 369 240 754 72 576 b 456 -17 72 160 240 -17 z m 283 271 b 461 172 318 210 382 172 b 629 258 533 172 594 206 l 538 324 b 461 279 522 296 493 279 b 368 360 415 279 376 314 l 294 360 b 293 378 294 365 293 371 b 465 549 294 478 374 549 b 594 499 515 549 561 533 l 615 518 b 465 576 576 557 524 576 b 264 378 353 576 265 490 b 265 360 264 372 264 365 l 258 360 b 283 271 261 326 269 297 z "},"℗":{"ha":919,"x_min":0,"x_max":0,"o":"m 456 68 b 158 368 286 68 158 203 b 458 672 158 533 288 672 b 754 371 625 672 754 535 b 456 68 754 204 625 68 z m 456 -17 b 840 369 674 -17 840 161 b 458 754 840 578 674 754 b 72 369 240 754 72 576 b 456 -17 72 160 240 -17 z m 604 461 b 472 357 603 371 532 357 l 382 357 l 382 568 l 485 568 b 604 461 540 568 603 546 z m 307 142 l 438 142 l 438 325 l 481 325 b 638 465 571 325 638 371 b 496 601 638 579 543 601 l 347 601 l 347 353 l 307 353 z "},"":{"ha":382,"x_min":0,"x_max":0,"o":"m 1 -297 l 229 -297 l 381 -79 l 124 -79 z "},"Æ":{"ha":1594,"x_min":0,"x_max":0,"o":"m 1567 0 l 1567 231 l 997 231 l 997 432 l 1268 432 l 1268 569 l 886 569 l 886 999 l 1457 999 l 1457 1075 l 803 1075 l 803 494 l 581 1075 l 476 1075 l 253 494 l 165 494 l 0 0 l 300 0 l 340 140 l 692 140 l 694 131 l 694 0 z m 422 414 l 444 494 l 333 494 l 526 1015 l 719 494 l 592 494 l 617 414 z "},"Ð":{"ha":1054,"x_min":0,"x_max":0,"o":"m 949 497 b 951 549 950 514 951 531 b 376 1075 943 931 661 1075 l 124 1075 l 124 497 l 53 497 l 53 0 l 417 0 b 1019 497 710 0 989 125 z m 717 497 b 388 231 699 318 569 231 l 358 231 l 358 497 l 206 497 l 206 999 l 361 999 b 869 549 651 999 865 844 b 867 497 869 531 868 514 z m 442 426 l 442 501 l 42 501 l 42 426 z "},"¢":{"ha":797,"x_min":0,"x_max":0,"o":"m 515 494 b 471 472 503 485 488 476 l 471 883 b 710 731 578 874 664 814 l 781 781 b 471 961 717 890 599 953 l 471 1053 l 392 1053 l 392 960 b 43 588 200 940 43 789 b 333 224 43 367 186 256 l 333 115 l 531 115 l 531 221 b 776 388 642 243 725 306 z m 351 494 l 140 494 b 128 593 133 524 128 557 b 392 879 128 728 236 857 l 392 475 b 351 494 376 479 363 486 z "},"½":{"ha":1133,"x_min":0,"x_max":0,"o":"m 103 0 l 231 0 l 960 1075 l 832 1075 z m 304 1075 l 256 1075 l 171 1042 l 182 1000 l 256 1033 l 256 744 l 133 744 l 133 454 l 304 454 z m 746 290 b 624 71 682 243 624 179 b 631 0 624 47 626 25 l 1081 0 l 1081 135 l 801 135 b 1063 453 858 240 1063 296 b 879 628 1063 550 994 628 b 686 517 740 626 686 518 l 722 492 b 876 582 722 494 774 581 b 1014 453 961 582 1014 528 b 894 290 1014 379 961 335 z "},"¼":{"ha":1133,"x_min":0,"x_max":0,"o":"m 119 0 l 247 0 l 978 1075 l 849 1075 z m 611 149 l 890 149 l 890 0 l 1061 0 l 1061 149 l 1131 149 l 1131 290 l 1021 290 l 1021 621 l 978 621 z m 974 290 l 783 290 l 974 540 z m 304 1075 l 256 1075 l 171 1042 l 182 1000 l 256 1033 l 256 744 l 133 744 l 133 454 l 304 454 z "},"¾":{"ha":1181,"x_min":0,"x_max":0,"o":"m 176 0 l 304 0 l 1033 1075 l 906 1075 z m 611 149 l 890 149 l 890 0 l 1061 0 l 1061 149 l 1131 149 l 1131 290 l 1021 290 l 1021 621 l 978 621 z m 974 290 l 783 290 l 974 540 z m 385 743 b 224 813 343 792 276 811 l 421 1039 l 421 1072 l 53 1072 l 53 1028 l 353 1028 l 154 800 l 168 765 b 321 660 171 765 321 739 b 229 590 321 617 281 590 b 94 649 146 590 94 647 l 18 533 b 238 447 18 528 99 447 b 479 663 400 447 479 551 b 461 743 479 693 474 722 z "},"§":{"ha":704,"x_min":0,"x_max":0,"o":"m 374 -19 b 697 231 575 -19 697 69 b 604 386 697 311 660 358 b 697 576 664 429 697 493 b 161 894 697 885 161 693 b 350 1022 161 963 249 1022 b 578 943 426 1022 510 989 l 622 1013 b 353 1099 547 1064 443 1099 b 36 838 36 1099 36 889 b 119 689 36 776 69 726 b 36 492 36 624 36 525 b 301 275 36 374 161 294 b 428 210 433 256 426 208 b 351 172 425 182 388 172 b 103 274 281 172 189 217 l -1 103 b 374 -19 114 13 219 -19 z m 301 621 b 428 556 433 601 426 554 b 351 518 425 528 388 518 b 167 579 297 518 232 543 b 219 639 176 603 194 624 b 301 621 246 631 272 625 z "},"µ":{"ha":822,"x_min":0,"x_max":0,"o":"m 496 494 l 496 340 b 401 214 496 285 471 214 b 329 340 342 214 329 265 l 329 494 l 200 494 l 200 738 l 118 738 l 118 494 l 46 494 l 46 -297 l 244 -297 l 244 -19 b 274 -22 254 -22 264 -22 b 496 89 375 -22 464 49 l 504 0 l 769 0 l 769 494 l 729 494 l 729 738 l 646 738 l 646 494 z "},"ð":{"ha":879,"x_min":0,"x_max":0,"o":"m 497 753 b 535 660 521 721 535 689 b 531 647 535 651 533 647 b 344 708 517 647 469 708 b 19 360 135 708 19 542 b 407 -22 19 164 150 -22 b 847 453 614 -22 847 97 b 785 754 847 558 826 663 l 738 754 b 679 872 722 796 703 835 l 825 928 l 825 994 l 642 925 b 329 1075 569 1010 468 1068 l 329 997 b 561 893 428 994 503 956 l 410 836 l 410 769 l 603 843 b 649 753 621 815 636 785 z m 554 368 b 421 224 554 290 490 224 b 290 371 332 224 290 308 b 413 500 290 415 300 500 b 554 368 557 500 554 368 z "},"Þ":{"ha":1007,"x_min":0,"x_max":0,"o":"m 53 0 l 356 0 l 356 96 l 513 96 b 974 493 719 96 960 143 l 918 493 b 921 540 919 508 921 524 b 619 840 921 726 778 840 l 217 840 l 217 1075 l 132 1075 l 132 494 l 53 494 z m 688 494 b 532 389 675 411 614 389 l 356 389 l 356 494 l 217 494 l 217 758 l 631 758 b 846 540 751 758 846 668 b 842 493 846 524 844 508 z "},"þ":{"ha":903,"x_min":0,"x_max":0,"o":"m 53 494 l 53 -206 l 311 -206 l 311 68 b 522 -22 356 24 414 -22 b 871 367 729 -22 871 139 b 854 494 871 413 865 456 l 814 494 b 467 753 768 646 631 753 b 154 597 293 753 204 672 l 154 1075 l 76 1075 l 76 494 z m 514 494 b 585 374 556 471 585 425 b 453 238 585 297 526 238 b 319 374 378 238 319 297 b 393 494 319 425 349 472 l 183 494 b 453 674 224 599 325 674 b 725 494 590 674 685 601 z "},"¤":{"ha":833,"x_min":0,"x_max":0,"o":"m 529 367 b 417 258 529 307 479 258 b 306 367 354 258 306 307 b 418 479 306 428 354 479 b 529 367 483 479 529 426 z m 188 493 b 415 631 232 575 317 631 b 646 493 518 631 603 574 z m 749 369 b 672 579 749 443 726 506 l 772 683 l 728 729 l 622 631 b 421 696 556 679 499 696 l 403 696 b 206 624 321 693 268 671 l 106 726 l 63 682 l 163 579 b 85 367 114 521 85 449 b 200 118 85 269 126 176 l 119 0 l 225 0 l 275 75 b 418 46 319 57 365 46 b 557 72 471 46 515 57 l 608 0 l 714 0 l 633 118 b 749 369 708 178 749 271 z "},"":{"ha":1279,"x_min":0,"x_max":0,"o":"m 638 1313 b 235 928 385 1313 235 1136 b 256 801 235 883 242 842 l 271 801 b 638 544 321 642 458 544 b 1003 801 818 544 954 646 l 1019 801 b 1039 928 1032 842 1039 883 b 638 1313 1039 1143 881 1313 z m 586 801 b 501 928 535 822 503 874 b 638 1063 504 1004 563 1063 b 772 928 711 1063 769 1001 b 688 801 769 872 740 824 l 919 801 b 638 621 874 685 772 621 b 354 801 500 621 394 686 z m 671 722 b 638 757 671 740 656 757 b 603 722 618 757 603 742 b 638 689 603 703 618 689 b 671 722 656 689 671 704 z m 429 -354 l 569 -128 l 633 -8 l 697 -128 l 836 -354 l 919 -354 b 1006 -425 926 -396 963 -425 b 1092 -354 1051 -425 1085 -392 l 1192 -354 l 861 139 l 738 139 l 694 194 l 1061 663 l 1185 532 l 1261 532 l 1107 721 l 1003 721 l 638 250 l 271 721 l 168 721 l 14 532 l 90 532 l 214 663 l 578 194 l 535 139 l 414 139 l 83 -354 l 182 -354 b 269 -425 189 -393 225 -425 b 356 -354 313 -425 346 -394 z "},"…":{"ha":1458,"x_min":0,"x_max":0,"o":"m 247 -17 b 404 142 335 -17 404 54 b 247 300 404 229 335 300 b 89 142 160 300 89 229 b 247 -17 89 54 160 -17 z m 733 -17 b 890 142 821 -17 890 54 b 733 300 890 229 821 300 b 575 142 646 300 575 229 b 733 -17 575 54 646 -17 z m 1219 -17 b 1376 142 1307 -17 1376 54 b 1219 300 1376 229 1307 300 b 1061 142 1132 300 1061 229 b 1219 -17 1061 54 1132 -17 z "},"\"":{"ha":744,"x_min":0,"x_max":0,"o":"m 331 764 l 331 1075 l 244 1075 l 244 764 z m 497 764 l 497 1075 l 414 1075 l 414 764 z "},"!":{"ha":486,"x_min":0,"x_max":0,"o":"m 249 -43 b 329 39 297 -40 326 -8 b 249 121 326 85 294 121 b 167 39 203 121 167 85 b 249 -43 167 -7 203 -40 z m 135 496 l 213 496 l 213 233 l 288 233 l 288 496 l 361 496 l 419 1075 l 76 1075 z "},"Á":{"ha":1049,"x_min":0,"x_max":0,"o":"m 581 1075 l 476 1075 l 253 494 l 165 494 l 0 0 l 300 0 l 340 140 l 692 140 l 732 0 l 1049 0 l 883 494 l 801 494 z m 422 414 l 444 494 l 333 494 l 526 1015 l 719 494 l 592 494 l 617 414 z m 714 1390 l 592 1406 l 493 1154 l 557 1154 z "},"Â":{"ha":1049,"x_min":0,"x_max":0,"o":"m 581 1075 l 476 1075 l 253 494 l 165 494 l 0 0 l 300 0 l 340 140 l 692 140 l 732 0 l 1049 0 l 883 494 l 801 494 z m 422 414 l 444 494 l 333 494 l 526 1015 l 719 494 l 592 494 l 617 414 z m 344 1154 l 418 1154 l 528 1272 l 639 1154 l 715 1154 l 561 1343 l 499 1343 z "},"À":{"ha":1049,"x_min":0,"x_max":0,"o":"m 581 1075 l 476 1075 l 253 494 l 165 494 l 0 0 l 300 0 l 340 140 l 692 140 l 732 0 l 1049 0 l 883 494 l 801 494 z m 422 414 l 444 494 l 333 494 l 526 1015 l 719 494 l 592 494 l 617 414 z m 493 1154 l 557 1154 l 458 1406 l 336 1390 z "},"Ä":{"ha":1049,"x_min":0,"x_max":0,"o":"m 581 1075 l 476 1075 l 253 494 l 165 494 l 0 0 l 300 0 l 340 140 l 692 140 l 732 0 l 1049 0 l 883 494 l 801 494 z m 422 414 l 444 494 l 333 494 l 526 1015 l 719 494 l 592 494 l 617 414 z m 301 1154 l 446 1154 l 446 1297 l 301 1297 z m 608 1154 l 753 1154 l 753 1297 l 608 1297 z "},"Å":{"ha":1049,"x_min":0,"x_max":0,"o":"m 581 1075 l 476 1075 l 253 494 l 165 494 l 0 0 l 300 0 l 340 140 l 692 140 l 732 0 l 1049 0 l 883 494 l 801 494 z m 422 414 l 444 494 l 333 494 l 526 1015 l 719 494 l 592 494 l 617 414 z m 528 1015 b 692 1181 619 1015 692 1093 b 528 1347 692 1271 618 1347 b 365 1181 439 1347 365 1272 b 528 1015 365 1092 438 1015 z m 624 1181 b 529 1082 624 1129 583 1082 b 433 1181 475 1082 433 1128 b 528 1281 433 1235 476 1281 b 624 1181 579 1281 624 1235 z "},"Ã":{"ha":1049,"x_min":0,"x_max":0,"o":"m 581 1075 l 476 1075 l 253 494 l 165 494 l 0 0 l 300 0 l 340 140 l 692 140 l 732 0 l 1049 0 l 883 494 l 801 494 z m 422 414 l 444 494 l 333 494 l 526 1015 l 719 494 l 592 494 l 617 414 z m 635 1149 b 760 1293 690 1149 732 1185 l 707 1307 b 633 1229 683 1244 664 1229 b 426 1293 572 1229 488 1293 b 301 1149 371 1293 329 1257 l 354 1135 b 428 1213 378 1197 397 1213 b 635 1149 489 1213 574 1149 z "},"Ç":{"ha":1086,"x_min":0,"x_max":0,"o":"m 351 -285 b 532 -318 397 -301 468 -318 b 733 -178 658 -318 733 -257 b 539 -65 733 -78 611 -68 l 564 -29 l 588 -29 b 1053 207 789 -29 957 60 l 800 388 b 588 267 756 314 674 267 b 329 490 460 267 351 364 l 124 490 b 121 538 122 506 121 521 b 599 1014 125 817 342 1013 b 956 874 736 1014 865 969 l 1014 926 b 599 1092 908 1038 760 1092 b 39 539 288 1092 43 850 b 42 490 39 522 40 506 l 22 490 b 93 244 29 399 53 317 b 469 -18 171 106 304 11 l 435 -81 l 465 -106 l 479 -106 b 575 -150 511 -106 575 -114 b 479 -208 575 -171 575 -208 b 351 -175 415 -208 375 -187 z "},"É":{"ha":957,"x_min":0,"x_max":0,"o":"m 925 0 l 925 231 l 356 231 l 356 432 l 626 432 l 626 569 l 244 569 l 244 999 l 815 999 l 815 1075 l 161 1075 l 161 494 l 53 494 l 53 0 z m 607 1390 l 485 1406 l 386 1154 l 450 1154 z "},"Ê":{"ha":957,"x_min":0,"x_max":0,"o":"m 925 0 l 925 231 l 356 231 l 356 432 l 626 432 l 626 569 l 244 569 l 244 999 l 815 999 l 815 1075 l 161 1075 l 161 494 l 53 494 l 53 0 z m 297 1154 l 371 1154 l 481 1272 l 592 1154 l 668 1154 l 514 1343 l 451 1343 z "},"Ë":{"ha":957,"x_min":0,"x_max":0,"o":"m 925 0 l 925 231 l 356 231 l 356 432 l 626 432 l 626 569 l 244 569 l 244 999 l 815 999 l 815 1075 l 161 1075 l 161 494 l 53 494 l 53 0 z m 271 1154 l 415 1154 l 415 1297 l 271 1297 z m 578 1154 l 722 1154 l 722 1297 l 578 1297 z "},"È":{"ha":957,"x_min":0,"x_max":0,"o":"m 925 0 l 925 231 l 356 231 l 356 432 l 626 432 l 626 569 l 244 569 l 244 999 l 815 999 l 815 1075 l 161 1075 l 161 494 l 53 494 l 53 0 z m 458 1154 l 522 1154 l 424 1406 l 301 1390 z "},"é":{"ha":832,"x_min":0,"x_max":0,"o":"m 419 -17 b 776 160 689 -17 776 160 l 579 275 b 440 203 579 275 542 203 b 294 324 328 203 294 290 l 796 324 b 803 386 801 343 803 365 b 785 496 803 424 796 463 l 768 496 b 421 754 722 633 625 754 b 61 496 243 754 118 658 l 49 496 b 29 368 36 457 29 414 b 419 -17 29 144 178 -17 z m 417 682 b 690 496 585 679 656 582 l 521 496 b 538 431 532 475 538 454 l 294 431 b 314 496 294 454 300 475 l 144 496 b 417 682 174 582 256 679 z m 581 1053 l 458 1068 l 360 817 l 424 817 z "},"ê":{"ha":832,"x_min":0,"x_max":0,"o":"m 419 -17 b 776 160 689 -17 776 160 l 579 275 b 440 203 579 275 542 203 b 294 324 328 203 294 290 l 796 324 b 803 386 801 343 803 365 b 785 496 803 424 796 463 l 768 496 b 421 754 722 633 625 754 b 61 496 243 754 118 658 l 49 496 b 29 368 36 457 29 414 b 419 -17 29 144 178 -17 z m 417 682 b 690 496 585 679 656 582 l 521 496 b 538 431 532 475 538 454 l 294 431 b 314 496 294 454 300 475 l 144 496 b 417 682 174 582 256 679 z m 238 817 l 311 817 l 421 935 l 532 817 l 608 817 l 454 1006 l 392 1006 z "},"ë":{"ha":832,"x_min":0,"x_max":0,"o":"m 419 -17 b 776 160 689 -17 776 160 l 579 275 b 440 203 579 275 542 203 b 294 324 328 203 294 290 l 796 324 b 803 386 801 343 803 365 b 785 496 803 424 796 463 l 768 496 b 421 754 722 633 625 754 b 61 496 243 754 118 658 l 49 496 b 29 368 36 457 29 414 b 419 -17 29 144 178 -17 z m 417 682 b 690 496 585 679 656 582 l 521 496 b 538 431 532 475 538 454 l 294 431 b 314 496 294 454 300 475 l 144 496 b 417 682 174 582 256 679 z m 197 817 l 342 817 l 342 960 l 197 960 z m 504 817 l 649 817 l 649 960 l 504 960 z "},"è":{"ha":832,"x_min":0,"x_max":0,"o":"m 419 -17 b 776 160 689 -17 776 160 l 579 275 b 440 203 579 275 542 203 b 294 324 328 203 294 290 l 796 324 b 803 386 801 343 803 365 b 785 496 803 424 796 463 l 768 496 b 421 754 722 633 625 754 b 61 496 243 754 118 658 l 49 496 b 29 368 36 457 29 414 b 419 -17 29 144 178 -17 z m 417 682 b 690 496 585 679 656 582 l 521 496 b 538 431 532 475 538 454 l 294 431 b 314 496 294 454 300 475 l 144 496 b 417 682 174 582 256 679 z m 389 817 l 453 817 l 354 1068 l 232 1053 z "},"í":{"ha":382,"x_min":0,"x_max":0,"o":"m 53 494 l 53 0 l 329 0 l 329 494 l 231 494 l 231 738 l 149 738 l 149 494 z m 368 1053 l 246 1068 l 147 817 l 211 817 z "},"î":{"ha":382,"x_min":0,"x_max":0,"o":"m 53 494 l 53 0 l 329 0 l 329 494 l 231 494 l 231 738 l 149 738 l 149 494 z m 7 817 l 81 817 l 190 935 l 301 817 l 378 817 l 224 1006 l 161 1006 z "},"ï":{"ha":382,"x_min":0,"x_max":0,"o":"m 53 494 l 53 0 l 329 0 l 329 494 l 231 494 l 231 738 l 149 738 l 149 494 z m -35 817 l 110 817 l 110 960 l -35 960 z m 272 817 l 417 817 l 417 960 l 272 960 z "},"ì":{"ha":382,"x_min":0,"x_max":0,"o":"m 53 494 l 53 0 l 329 0 l 329 494 l 231 494 l 231 738 l 149 738 l 149 494 z m 160 817 l 224 817 l 125 1068 l 3 1053 z "},"ó":{"ha":868,"x_min":0,"x_max":0,"o":"m 433 -17 b 836 368 689 -17 836 163 b 433 750 836 583 660 750 b 32 368 225 750 32 592 b 433 -17 32 156 189 -17 z m 483 494 b 569 368 536 474 567 424 b 433 233 567 290 510 236 b 299 368 361 236 299 290 b 383 494 299 424 332 474 l 151 494 b 433 674 193 611 299 674 b 717 494 569 674 669 614 z m 613 1053 l 490 1068 l 392 817 l 456 817 z "},"ô":{"ha":868,"x_min":0,"x_max":0,"o":"m 433 -17 b 836 368 689 -17 836 163 b 433 750 836 583 660 750 b 32 368 225 750 32 592 b 433 -17 32 156 189 -17 z m 483 494 b 569 368 536 474 567 424 b 433 233 567 290 510 236 b 299 368 361 236 299 290 b 383 494 299 424 332 474 l 151 494 b 433 674 193 611 299 674 b 717 494 569 674 669 614 z m 251 817 l 325 817 l 435 935 l 546 817 l 622 817 l 468 1006 l 406 1006 z "},"ö":{"ha":868,"x_min":0,"x_max":0,"o":"m 433 -17 b 836 368 689 -17 836 163 b 433 750 836 583 660 750 b 32 368 225 750 32 592 b 433 -17 32 156 189 -17 z m 483 494 b 569 368 536 474 567 424 b 433 233 567 290 510 236 b 299 368 361 236 299 290 b 383 494 299 424 332 474 l 151 494 b 433 674 193 611 299 674 b 717 494 569 674 669 614 z m 208 817 l 353 817 l 353 960 l 208 960 z m 515 817 l 660 817 l 660 960 l 515 960 z "},"ò":{"ha":868,"x_min":0,"x_max":0,"o":"m 433 -17 b 836 368 689 -17 836 163 b 433 750 836 583 660 750 b 32 368 225 750 32 592 b 433 -17 32 156 189 -17 z m 483 494 b 569 368 536 474 567 424 b 433 233 567 290 510 236 b 299 368 361 236 299 290 b 383 494 299 424 332 474 l 151 494 b 433 674 193 611 299 674 b 717 494 569 674 669 614 z m 406 817 l 469 817 l 371 1068 l 249 1053 z "},"õ":{"ha":868,"x_min":0,"x_max":0,"o":"m 433 -17 b 836 368 689 -17 836 163 b 433 750 836 583 660 750 b 32 368 225 750 32 592 b 433 -17 32 156 189 -17 z m 483 494 b 569 368 536 474 567 424 b 433 233 567 290 510 236 b 299 368 361 236 299 290 b 383 494 299 424 332 474 l 151 494 b 433 674 193 611 299 674 b 717 494 569 674 669 614 z m 543 811 b 668 956 599 811 640 847 l 615 969 b 542 892 592 907 572 892 b 335 956 481 892 396 956 b 210 811 279 956 238 919 l 263 797 b 336 875 286 860 306 875 b 543 811 397 875 482 811 z "},"š":{"ha":718,"x_min":0,"x_max":0,"o":"m 225 494 b 171 571 190 510 171 536 b 360 679 171 639 258 679 b 588 600 436 679 519 646 l 632 669 b 363 756 557 721 453 756 b 46 522 46 756 46 574 b 438 213 46 328 438 313 b 361 175 438 185 397 175 b 113 276 290 175 199 213 l 8 106 b 383 -17 124 15 229 -17 b 707 233 585 -17 707 72 b 503 494 707 415 503 494 z m 310 817 l 410 817 l 571 1065 l 508 1065 l 361 886 l 231 1065 l 167 1065 z "},"ú":{"ha":822,"x_min":0,"x_max":0,"o":"m 110 738 l 110 494 l 46 494 l 46 210 b 258 -17 46 72 114 -17 b 496 89 386 -17 464 46 l 504 0 l 769 0 l 769 494 l 721 494 l 721 738 l 638 738 l 638 494 l 496 494 l 496 340 b 401 214 496 285 472 214 b 329 328 346 214 329 260 l 329 494 l 192 494 l 192 738 z m 569 1053 l 447 1068 l 349 817 l 413 817 z "},"û":{"ha":822,"x_min":0,"x_max":0,"o":"m 110 738 l 110 494 l 46 494 l 46 210 b 258 -17 46 72 114 -17 b 496 89 386 -17 464 46 l 504 0 l 769 0 l 769 494 l 721 494 l 721 738 l 638 738 l 638 494 l 496 494 l 496 340 b 401 214 496 285 472 214 b 329 328 346 214 329 260 l 329 494 l 192 494 l 192 738 z m 229 817 l 303 817 l 413 935 l 524 817 l 600 817 l 446 1006 l 383 1006 z "},"ü":{"ha":822,"x_min":0,"x_max":0,"o":"m 110 738 l 110 494 l 46 494 l 46 210 b 258 -17 46 72 114 -17 b 496 89 386 -17 464 46 l 504 0 l 769 0 l 769 494 l 721 494 l 721 738 l 638 738 l 638 494 l 496 494 l 496 340 b 401 214 496 285 472 214 b 329 328 346 214 329 260 l 329 494 l 192 494 l 192 738 z m 185 817 l 329 817 l 329 960 l 185 960 z m 492 817 l 636 817 l 636 960 l 492 960 z "},"ù":{"ha":822,"x_min":0,"x_max":0,"o":"m 110 738 l 110 494 l 46 494 l 46 210 b 258 -17 46 72 114 -17 b 496 89 386 -17 464 46 l 504 0 l 769 0 l 769 494 l 721 494 l 721 738 l 638 738 l 638 494 l 496 494 l 496 340 b 401 214 496 285 472 214 b 329 328 346 214 329 260 l 329 494 l 192 494 l 192 738 z m 389 817 l 453 817 l 354 1068 l 232 1053 z "},"á":{"ha":864,"x_min":0,"x_max":0,"o":"m 531 235 b 413 150 526 175 471 150 b 290 235 360 150 294 171 b 413 332 290 301 350 331 b 531 235 468 332 526 300 z m 526 492 b 531 467 529 483 531 475 l 531 428 b 328 486 482 467 394 486 b 18 235 171 486 18 413 b 301 -17 18 72 150 -17 b 522 60 454 -17 522 60 l 531 0 l 807 0 l 807 390 b 797 492 807 428 803 461 l 726 492 b 407 754 714 665 575 754 b 213 725 296 754 213 725 l 232 653 b 379 678 232 653 300 678 b 643 500 485 678 638 633 l 643 492 z m 594 1053 l 472 1068 l 374 817 l 438 817 z "},"â":{"ha":864,"x_min":0,"x_max":0,"o":"m 531 235 b 413 150 526 175 471 150 b 290 235 360 150 294 171 b 413 332 290 301 350 331 b 531 235 468 332 526 300 z m 526 492 b 531 467 529 483 531 475 l 531 428 b 328 486 482 467 394 486 b 18 235 171 486 18 413 b 301 -17 18 72 150 -17 b 522 60 454 -17 522 60 l 531 0 l 807 0 l 807 390 b 797 492 807 428 803 461 l 726 492 b 407 754 714 665 575 754 b 213 725 296 754 213 725 l 232 653 b 379 678 232 653 300 678 b 643 500 485 678 638 633 l 643 492 z m 217 817 l 290 817 l 400 935 l 511 817 l 588 817 l 433 1006 l 371 1006 z "},"ä":{"ha":864,"x_min":0,"x_max":0,"o":"m 531 235 b 413 150 526 175 471 150 b 290 235 360 150 294 171 b 413 332 290 301 350 331 b 531 235 468 332 526 300 z m 526 492 b 531 467 529 483 531 475 l 531 428 b 328 486 482 467 394 486 b 18 235 171 486 18 413 b 301 -17 18 72 150 -17 b 522 60 454 -17 522 60 l 531 0 l 807 0 l 807 390 b 797 492 807 428 803 461 l 726 492 b 407 754 714 665 575 754 b 213 725 296 754 213 725 l 232 653 b 379 678 232 653 300 678 b 643 500 485 678 638 633 l 643 492 z m 175 817 l 319 817 l 319 960 l 175 960 z m 482 817 l 626 817 l 626 960 l 482 960 z "},"à":{"ha":864,"x_min":0,"x_max":0,"o":"m 531 235 b 413 150 526 175 471 150 b 290 235 360 150 294 171 b 413 332 290 301 350 331 b 531 235 468 332 526 300 z m 526 492 b 531 467 529 483 531 475 l 531 428 b 328 486 482 467 394 486 b 18 235 171 486 18 413 b 301 -17 18 72 150 -17 b 522 60 454 -17 522 60 l 531 0 l 807 0 l 807 390 b 797 492 807 428 803 461 l 726 492 b 407 754 714 665 575 754 b 213 725 296 754 213 725 l 232 653 b 379 678 232 653 300 678 b 643 500 485 678 638 633 l 643 492 z m 443 817 l 507 817 l 408 1068 l 286 1053 z "},"å":{"ha":864,"x_min":0,"x_max":0,"o":"m 531 235 b 413 150 526 175 471 150 b 290 235 360 150 294 171 b 413 332 290 301 350 331 b 531 235 468 332 526 300 z m 526 492 b 531 467 529 483 531 475 l 531 428 b 328 486 482 467 394 486 b 18 235 171 486 18 413 b 301 -17 18 72 150 -17 b 522 60 454 -17 522 60 l 531 0 l 807 0 l 807 390 b 797 492 807 428 803 461 l 726 492 b 407 754 714 665 575 754 b 213 725 296 754 213 725 l 232 653 b 379 678 232 653 300 678 b 643 500 485 678 638 633 l 643 492 z m 401 806 b 565 971 493 806 565 883 b 401 1138 565 1061 492 1138 b 239 971 313 1138 239 1063 b 401 806 239 882 311 806 z m 497 971 b 403 872 497 919 457 872 b 307 971 349 872 307 918 b 401 1071 307 1025 350 1071 b 497 971 453 1071 497 1025 z "},"ã":{"ha":864,"x_min":0,"x_max":0,"o":"m 531 235 b 413 150 526 175 471 150 b 290 235 360 150 294 171 b 413 332 290 301 350 331 b 531 235 468 332 526 300 z m 526 492 b 531 467 529 483 531 475 l 531 428 b 328 486 482 467 394 486 b 18 235 171 486 18 413 b 301 -17 18 72 150 -17 b 522 60 454 -17 522 60 l 531 0 l 807 0 l 807 390 b 797 492 807 428 803 461 l 726 492 b 407 754 714 665 575 754 b 213 725 296 754 213 725 l 232 653 b 379 678 232 653 300 678 b 643 500 485 678 638 633 l 643 492 z m 513 811 b 638 956 568 811 610 847 l 585 969 b 511 892 561 907 542 892 b 304 956 450 892 365 956 b 179 811 249 956 207 919 l 232 797 b 306 875 256 860 275 875 b 513 811 367 875 451 811 z "},"ç":{"ha":760,"x_min":0,"x_max":0,"o":"m 193 -285 b 374 -318 239 -301 310 -318 b 575 -178 500 -318 575 -257 b 381 -65 575 -78 453 -68 l 414 -17 l 419 -17 b 749 160 574 -17 682 54 l 529 313 b 419 233 507 264 474 233 b 299 371 346 233 299 289 b 360 492 299 425 321 472 l 132 492 b 401 678 169 611 264 678 b 665 518 528 678 618 621 l 731 563 b 401 754 668 683 547 754 b 32 367 183 754 32 603 b 319 -6 32 182 140 35 l 276 -81 l 307 -106 l 321 -106 b 417 -150 353 -106 417 -114 b 321 -208 417 -171 417 -208 b 193 -175 257 -208 217 -187 z "},"ý":{"ha":714,"x_min":0,"x_max":0,"o":"m 17 738 l 122 493 l 21 493 l 231 -51 b 171 -92 214 -78 190 -92 b 100 -71 157 -92 128 -82 l -14 -261 b 200 -314 107 -314 156 -314 b 479 -42 363 -314 426 -171 l 696 493 l 606 493 l 704 738 l 621 738 l 525 493 l 453 493 l 361 235 l 272 493 l 204 493 l 97 738 z m 608 1053 l 486 1068 l 388 817 l 451 817 z "},"ÿ":{"ha":714,"x_min":0,"x_max":0,"o":"m 17 738 l 122 493 l 21 493 l 231 -51 b 171 -92 214 -78 190 -92 b 100 -71 157 -92 128 -82 l -14 -261 b 200 -314 107 -314 156 -314 b 479 -42 363 -314 426 -171 l 696 493 l 606 493 l 704 738 l 621 738 l 525 493 l 453 493 l 361 235 l 272 493 l 204 493 l 97 738 z m 211 817 l 356 817 l 356 960 l 211 960 z m 518 817 l 663 817 l 663 960 l 518 960 z "},"ž":{"ha":743,"x_min":0,"x_max":0,"o":"m 19 247 l 19 0 l 714 0 l 714 211 l 338 211 l 700 494 l 467 494 l 706 681 l 706 738 l 111 738 l 111 664 l 575 664 z m 382 817 l 482 817 l 643 1065 l 581 1065 l 433 886 l 303 1065 l 239 1065 z "},"Ñ":{"ha":1049,"x_min":0,"x_max":0,"o":"m 53 0 l 356 0 l 356 493 l 236 493 l 236 985 l 815 0 l 996 0 l 996 493 l 890 493 l 890 1075 l 811 1075 l 811 493 l 614 493 l 271 1075 l 157 1075 l 157 493 l 53 493 z m 633 1149 b 758 1293 689 1149 731 1185 l 706 1307 b 632 1229 682 1244 663 1229 b 425 1293 571 1229 486 1293 b 300 1149 369 1293 328 1257 l 353 1135 b 426 1213 376 1197 396 1213 b 633 1149 488 1213 572 1149 z "},"Š":{"ha":940,"x_min":0,"x_max":0,"o":"m 699 494 b 503 593 650 533 574 565 b 228 828 333 657 228 700 b 449 1014 228 926 297 1014 b 722 911 547 1014 633 978 l 783 979 b 464 1090 696 1039 596 1090 b 150 814 293 1090 150 1006 b 457 511 150 632 306 571 l 503 493 b 628 310 531 482 628 440 b 493 246 628 257 546 246 b 151 346 386 246 236 286 l 11 118 b 465 -17 122 43 297 -17 b 933 325 747 -17 933 82 b 883 494 933 393 911 450 z m 450 1154 l 550 1154 l 711 1403 l 649 1403 l 501 1224 l 371 1403 l 307 1403 z "},"Ú":{"ha":1011,"x_min":0,"x_max":0,"o":"m 656 451 b 494 256 656 361 636 256 b 336 451 356 256 336 365 l 336 496 l 207 496 l 207 1075 l 128 1075 l 128 496 l 32 496 l 32 463 b 496 -15 32 240 92 -15 b 958 463 889 -15 958 253 l 958 496 l 863 496 l 863 1075 l 783 1075 l 783 496 l 656 496 z m 675 1390 l 553 1406 l 454 1154 l 518 1154 z "},"Û":{"ha":1011,"x_min":0,"x_max":0,"o":"m 656 451 b 494 256 656 361 636 256 b 336 451 356 256 336 365 l 336 496 l 207 496 l 207 1075 l 128 1075 l 128 496 l 32 496 l 32 463 b 496 -15 32 240 92 -15 b 958 463 889 -15 958 253 l 958 496 l 863 496 l 863 1075 l 783 1075 l 783 496 l 656 496 z m 314 1154 l 388 1154 l 497 1272 l 608 1154 l 685 1154 l 531 1343 l 468 1343 z "},"Ü":{"ha":1011,"x_min":0,"x_max":0,"o":"m 656 451 b 494 256 656 361 636 256 b 336 451 356 256 336 365 l 336 496 l 207 496 l 207 1075 l 128 1075 l 128 496 l 32 496 l 32 463 b 496 -15 32 240 92 -15 b 958 463 889 -15 958 253 l 958 496 l 863 496 l 863 1075 l 783 1075 l 783 496 l 656 496 z m 272 1154 l 417 1154 l 417 1297 l 272 1297 z m 579 1154 l 724 1154 l 724 1297 l 579 1297 z "},"Ù":{"ha":1011,"x_min":0,"x_max":0,"o":"m 656 451 b 494 256 656 361 636 256 b 336 451 356 256 336 365 l 336 496 l 207 496 l 207 1075 l 128 1075 l 128 496 l 32 496 l 32 463 b 496 -15 32 240 92 -15 b 958 463 889 -15 958 253 l 958 496 l 863 496 l 863 1075 l 783 1075 l 783 496 l 656 496 z m 497 1154 l 561 1154 l 463 1406 l 340 1390 z "},"Ó":{"ha":1193,"x_min":0,"x_max":0,"o":"m 1158 504 b 596 1094 1158 869 910 1094 b 35 504 283 1094 35 872 b 596 -14 35 221 282 -14 l 601 -14 b 1158 504 904 -14 1158 214 z m 850 497 b 601 272 829 374 738 272 b 343 497 468 272 365 371 l 121 497 b 118 542 119 511 118 526 b 596 1017 122 819 340 1017 b 1075 542 863 1017 1071 813 b 1074 497 1075 526 1074 511 z m 774 1390 l 651 1406 l 553 1154 l 617 1154 z "},"Ô":{"ha":1193,"x_min":0,"x_max":0,"o":"m 1158 504 b 596 1094 1158 869 910 1094 b 35 504 283 1094 35 872 b 596 -14 35 221 282 -14 l 601 -14 b 1158 504 904 -14 1158 214 z m 850 497 b 601 272 829 374 738 272 b 343 497 468 272 365 371 l 121 497 b 118 542 119 511 118 526 b 596 1017 122 819 340 1017 b 1075 542 863 1017 1071 813 b 1074 497 1075 526 1074 511 z m 414 1154 l 488 1154 l 597 1272 l 708 1154 l 785 1154 l 631 1343 l 568 1343 z "},"Ö":{"ha":1193,"x_min":0,"x_max":0,"o":"m 1158 504 b 596 1094 1158 869 910 1094 b 35 504 283 1094 35 872 b 596 -14 35 221 282 -14 l 601 -14 b 1158 504 904 -14 1158 214 z m 850 497 b 601 272 829 374 738 272 b 343 497 468 272 365 371 l 121 497 b 118 542 119 511 118 526 b 596 1017 122 819 340 1017 b 1075 542 863 1017 1071 813 b 1074 497 1075 526 1074 511 z m 364 1154 l 508 1154 l 508 1297 l 364 1297 z m 671 1154 l 815 1154 l 815 1297 l 671 1297 z "},"Ò":{"ha":1193,"x_min":0,"x_max":0,"o":"m 1158 504 b 596 1094 1158 869 910 1094 b 35 504 283 1094 35 872 b 596 -14 35 221 282 -14 l 601 -14 b 1158 504 904 -14 1158 214 z m 850 497 b 601 272 829 374 738 272 b 343 497 468 272 365 371 l 121 497 b 118 542 119 511 118 526 b 596 1017 122 819 340 1017 b 1075 542 863 1017 1071 813 b 1074 497 1075 526 1074 511 z m 567 1154 l 631 1154 l 532 1406 l 410 1390 z "},"Õ":{"ha":1193,"x_min":0,"x_max":0,"o":"m 1158 504 b 596 1094 1158 869 910 1094 b 35 504 283 1094 35 872 b 596 -14 35 221 282 -14 l 601 -14 b 1158 504 904 -14 1158 214 z m 850 497 b 601 272 829 374 738 272 b 343 497 468 272 365 371 l 121 497 b 118 542 119 511 118 526 b 596 1017 122 819 340 1017 b 1075 542 863 1017 1071 813 b 1074 497 1075 526 1074 511 z m 706 1149 b 831 1293 761 1149 803 1185 l 778 1307 b 704 1229 754 1244 735 1229 b 497 1293 643 1229 558 1293 b 372 1149 442 1293 400 1257 l 425 1135 b 499 1213 449 1197 468 1213 b 706 1149 560 1213 644 1149 z "},"Ý":{"ha":907,"x_min":0,"x_max":0,"o":"m 293 0 l 599 0 l 599 494 l 538 494 l 903 1075 l 803 1075 l 454 515 l 101 1075 l 3 1075 l 368 494 l 293 494 z m 746 1390 l 624 1406 l 525 1154 l 589 1154 z "},"Ÿ":{"ha":907,"x_min":0,"x_max":0,"o":"m 293 0 l 599 0 l 599 494 l 538 494 l 903 1075 l 803 1075 l 454 515 l 101 1075 l 3 1075 l 368 494 l 293 494 z m 351 1154 l 496 1154 l 496 1297 l 351 1297 z m 658 1154 l 803 1154 l 803 1297 l 658 1297 z "},"Ž":{"ha":983,"x_min":0,"x_max":0,"o":"m 19 0 l 967 0 l 967 228 l 406 228 l 921 1008 l 921 1075 l 208 1075 l 208 999 l 825 999 l 490 494 l 251 494 l 19 238 z m 540 1154 l 640 1154 l 801 1403 l 739 1403 l 592 1224 l 461 1403 l 397 1403 z "},"Í":{"ha":406,"x_min":0,"x_max":0,"o":"m 357 0 l 357 496 l 244 496 l 244 1075 l 163 1075 l 163 496 l 50 496 l 50 0 z m 386 1390 l 264 1406 l 165 1154 l 229 1154 z "},"Î":{"ha":406,"x_min":0,"x_max":0,"o":"m 357 0 l 357 496 l 244 496 l 244 1075 l 163 1075 l 163 496 l 50 496 l 50 0 z m 21 1154 l 94 1154 l 204 1272 l 315 1154 l 392 1154 l 238 1343 l 175 1343 z "},"Ï":{"ha":406,"x_min":0,"x_max":0,"o":"m 357 0 l 357 496 l 244 496 l 244 1075 l 163 1075 l 163 496 l 50 496 l 50 0 z m -22 1154 l 122 1154 l 122 1297 l -22 1297 z m 285 1154 l 429 1154 l 429 1297 l 285 1297 z "},"Ì":{"ha":406,"x_min":0,"x_max":0,"o":"m 357 0 l 357 496 l 244 496 l 244 1075 l 163 1075 l 163 496 l 50 496 l 50 0 z m 171 1154 l 235 1154 l 136 1406 l 14 1390 z "},"ñ":{"ha":825,"x_min":0,"x_max":0,"o":"m 53 497 l 53 0 l 329 0 l 329 494 l 190 494 b 483 676 239 569 339 676 b 644 494 636 676 644 561 l 497 494 l 497 0 l 776 0 l 776 494 l 726 494 b 500 754 726 639 683 754 b 188 607 342 754 249 676 l 182 738 l 106 738 l 106 497 z m 522 811 b 647 956 578 811 619 847 l 594 969 b 521 892 571 907 551 892 b 314 956 460 892 375 956 b 189 811 258 956 217 919 l 242 797 b 315 875 265 860 285 875 b 522 811 376 875 461 811 z "},"ß":{"ha":889,"x_min":0,"x_max":0,"o":"m 53 494 l 53 0 l 329 0 l 329 494 l 260 494 l 260 718 b 474 1038 260 863 264 1038 b 682 833 590 1038 682 954 b 433 615 682 676 554 615 l 433 486 b 588 354 481 486 588 464 b 479 219 588 301 543 219 l 408 6 b 585 -29 428 -3 513 -29 b 857 283 750 -29 857 108 b 614 593 857 432 740 550 b 761 831 672 629 761 696 b 472 1106 761 985 644 1106 b 181 751 214 1106 181 919 l 181 494 z "},"¹":{"ha":243,"x_min":0,"x_max":0,"o":"m 197 1060 l 157 1060 l 86 1032 l 96 997 l 157 1025 l 157 781 l 54 781 l 54 538 l 197 538 z "},"²":{"ha":453,"x_min":0,"x_max":0,"o":"m 132 782 b 29 597 78 742 29 688 b 36 538 29 578 32 558 l 411 538 l 411 651 l 179 651 b 397 918 226 740 397 786 b 243 1065 397 1000 340 1065 b 82 972 128 1065 82 974 l 111 951 b 242 1026 111 954 156 1026 b 356 919 311 1026 356 981 b 256 782 356 857 311 819 z "},"³":{"ha":425,"x_min":0,"x_max":0,"o":"m 321 781 b 186 839 286 822 231 838 l 351 1029 l 351 1057 l 43 1057 l 43 1021 l 294 1021 l 128 829 l 140 800 b 267 710 142 800 267 776 b 190 651 267 675 235 651 b 78 701 121 651 78 700 l 14 604 b 199 532 14 600 82 532 b 400 713 333 532 400 619 b 385 781 400 739 394 763 z "}}}
